<svg width="1437" height="3139" viewBox="0 0 1437 3139" fill="none" xmlns="http://www.w3.org/2000/svg">
<path d="M1009.25 859.629L1009.43 859.269L1009.63 859.629L1009.25 859.629Z" fill="#03B8A2" fill-opacity="0.02"/>
<path d="M1009.43 944.108L1008.44 942.208L1010.44 942.208L1009.43 944.108Z" fill="#03B8A2" fill-opacity="0.02"/>
<path d="M943.283 819.848L941.702 816.847L944.874 816.847L943.283 819.848Z" fill="#03B8A2" fill-opacity="0.02"/>
<path d="M939.44 986.929L943.283 979.669L947.135 986.929L939.44 986.929Z" fill="#03B8A2" fill-opacity="0.02"/>
<path d="M1075.59 1068.38L1075.16 1067.58L1076.01 1067.58L1075.59 1068.38Z" fill="#03B8A2" fill-opacity="0.02"/>
<path d="M872.56 862.391L877.128 853.756L881.701 862.391L872.56 862.391Z" fill="#03B8A2" fill-opacity="0.02"/>
<path d="M877.128 950.401L871.134 939.064L883.127 939.064L877.128 950.401Z" fill="#03B8A2" fill-opacity="0.02"/>
<path d="M943.283 1074.23L938.206 1064.65L948.367 1064.65L943.283 1074.23Z" fill="#03B8A2" fill-opacity="0.02"/>
<path d="M1006.12 1111.6L1009.43 1105.32L1012.76 1111.6L1006.12 1111.6Z" fill="#03B8A2" fill-opacity="0.02"/>
<path d="M942.793 734.814L943.283 733.907L943.77 734.814L942.793 734.814Z" fill="#03B8A2" fill-opacity="0.02"/>
<path d="M806.303 737.45L810.977 728.635L815.645 737.45L806.303 737.45Z" fill="#03B8A2" fill-opacity="0.02"/>
<path d="M810.977 826.383L804.207 813.572L817.751 813.572L810.977 826.383Z" fill="#03B8A2" fill-opacity="0.02"/>
<path d="M800.58 991.055L810.977 971.422L821.369 991.055L800.58 991.055Z" fill="#03B8A2" fill-opacity="0.2"/>
<path d="M810.977 1083.24L798.753 1060.14L823.205 1060.14L810.977 1083.24Z" fill="#03B8A2" fill-opacity="0.02"/>
<path d="M867.836 1115.36L877.128 1097.8L886.424 1115.36L867.836 1115.36Z" fill="#03B8A2" fill-opacity="0.02"/>
<path d="M1009.43 1199.83L1003.89 1189.35L1014.98 1189.35L1009.43 1199.83Z" fill="#03B8A2" fill-opacity="0.02"/>
<path d="M1071.47 1237.1L1075.59 1229.31L1079.71 1237.1L1071.47 1237.1Z" fill="#03B8A2" fill-opacity="0.02"/>
<path d="M1141.75 1193.65L1141.11 1192.44L1142.39 1192.44L1141.75 1193.65Z" fill="#03B8A2" fill-opacity="0.02"/>
<path d="M877.128 694.619L875.732 691.966L878.529 691.966L877.128 694.619Z" fill="#03B8A2" fill-opacity="0.02"/>
<path d="M744.826 700.404L738.812 689.068L750.83 689.068L744.826 700.404Z" fill="#03B8A2" fill-opacity="0.02"/>
<path d="M733.533 866.611L744.826 845.295L756.119 866.611L733.533 866.611Z" fill="#03B8A2" fill-opacity="0.02"/>
<path d="M744.826 960.03L731.187 934.25L758.47 934.25L744.826 960.03Z" fill="#03B8A2" fill-opacity="0.02"/>
<path d="M727.179 1120.62L744.826 1087.27L762.463 1120.62L727.179 1120.62Z" fill="#03B8A2" fill-opacity="0.02"/>
<path d="M877.128 1207.15L865.77 1185.68L888.501 1185.68L877.128 1207.15Z" fill="#03B8A2" fill-opacity="0.02"/>
<path d="M933.947 1240.39L943.283 1222.74L952.615 1240.39L933.947 1240.39Z" fill="#03B8A2" fill-opacity="0.02"/>
<path d="M1075.59 1326.57L1068.66 1313.47L1082.54 1313.47L1075.59 1326.57Z" fill="#03B8A2" fill-opacity="0.02"/>
<path d="M877.103 609.534L877.128 609.485L877.158 609.534L877.103 609.534Z" fill="#03B8A2" fill-opacity="0.02"/>
<path d="M668.718 740.785L678.675 721.976L688.627 740.785L668.718 740.785Z" fill="#03B8A2" fill-opacity="0.02"/>
<path d="M678.675 834.472L665.481 809.538L691.859 809.538L678.675 834.472Z" fill="#03B8A2" fill-opacity="0.02"/>
<path d="M660.287 996.088L678.675 961.356L697.053 996.088L660.287 996.088Z" fill="#03B8A2" fill-opacity="0.02"/>
<path d="M678.675 1093.41L658.376 1055.05L698.974 1055.05L678.675 1093.41Z" fill="#03B8A2" fill-opacity="0.02"/>
<path d="M744.826 1217.88L724.947 1180.32L764.705 1180.32L744.826 1217.88Z" fill="#03B8A2" fill-opacity="0.02"/>
<path d="M794.205 1245.08L810.977 1213.38L827.743 1245.08L794.205 1245.08Z" fill="#03B8A2" fill-opacity="0.02"/>
<path d="M943.283 1333.51L930.835 1310.01L955.743 1310.01L943.283 1333.51Z" fill="#03B8A2" fill-opacity="0.02"/>
<path d="M997.75 1366.87L1009.43 1344.78L1021.14 1366.87L997.75 1366.87Z" fill="#03B8A2" fill-opacity="0.02"/>
<path d="M1135.59 1363.38L1141.75 1351.74L1147.91 1363.38L1135.59 1363.38Z" fill="#03B8A2" fill-opacity="0.02"/>
<path d="M1207.9 1320.38L1205.88 1316.57L1209.91 1316.57L1207.9 1320.38Z" fill="#03B8A2" fill-opacity="0.02"/>
<path d="M810.977 568.995L810.066 567.281L811.888 567.281L810.977 568.995Z" fill="#03B8A2" fill-opacity="0.02"/>
<path d="M741.208 611.799L744.826 604.954L748.433 611.799L741.208 611.799Z" fill="#03B8A2" fill-opacity="0.02"/>
<path d="M604.684 614.457L612.524 599.649L620.365 614.457L604.684 614.457Z" fill="#03B8A2" fill-opacity="0.02"/>
<path d="M612.524 706.256L601.867 686.147L623.157 686.147L612.524 706.256Z" fill="#03B8A2" fill-opacity="0.02"/>
<path d="M595.047 870.519L612.524 837.507L629.986 870.519L595.047 870.519Z" fill="#03B8A2" fill-opacity="0.02"/>
<path d="M612.524 968.365L592.25 930.08L632.783 930.08L612.524 968.365Z" fill="#03B8A2" fill-opacity="0.02"/>
<path d="M588.112 1124.88L612.524 1078.77L636.916 1124.88L588.112 1124.88Z" fill="#03B8A2" fill-opacity="0.02"/>
<path d="M612.524 1225.7L586.421 1176.4L638.612 1176.4L612.524 1225.7Z" fill="#03B8A2" fill-opacity="0.02"/>
<path d="M654.438 1249.77L678.675 1203.99L702.902 1249.77L654.438 1249.77Z" fill="#03B8A2" fill-opacity="0.02"/>
<path d="M810.977 1342.58L791.323 1305.47L830.635 1305.47L810.977 1342.58Z" fill="#03B8A2" fill-opacity="0.02"/>
<path d="M859.421 1370.66L877.128 1337.2L894.845 1370.66L859.421 1370.66Z" fill="#03B8A2" fill-opacity="0.02"/>
<path d="M1009.43 1463.43L993.093 1432.54L1025.78 1432.54L1009.43 1463.43Z" fill="#03B8A2" fill-opacity="0.02"/>
<path d="M1059.59 1494.58L1075.59 1464.35L1091.6 1494.58L1059.59 1494.58Z" fill="#03B8A2" fill-opacity="0.02"/>
<path d="M1141.75 1456.19L1131.14 1436.16L1152.34 1436.16L1141.75 1456.19Z" fill="#03B8A2" fill-opacity="0.02"/>
<path d="M1272.54 1360.46L1274.05 1357.6L1275.56 1360.46L1272.54 1360.46Z" fill="#03B8A2" fill-opacity="0.02"/>
<path d="M678.675 573.651L674.057 564.956L683.283 564.956L678.675 573.651Z" fill="#03B8A2" fill-opacity="0.02"/>
<path d="M546.363 578.334L538.042 562.614L554.674 562.614L546.363 578.334Z" fill="#03B8A2" fill-opacity="0.02"/>
<path d="M531.488 743.885L546.363 715.77L561.234 743.885L531.488 743.885Z" fill="#03B8A2" fill-opacity="0.02"/>
<path d="M546.363 840.924L528.031 806.301L564.691 806.301L546.363 840.924Z" fill="#03B8A2" fill-opacity="0.02"/>
<path d="M522.462 999.57L546.363 954.402L570.26 999.57L522.462 999.57Z" fill="#03B8A2" fill-opacity="0.02"/>
<path d="M546.363 1100.47L520.455 1051.53L572.276 1051.53L546.363 1100.47Z" fill="#03B8A2" fill-opacity="0.02"/>
<path d="M517.844 1252.47L546.363 1198.58L574.878 1252.47L517.844 1252.47Z" fill="#03B8A2" fill-opacity="0.02"/>
<path d="M678.675 1350.99L652.342 1301.26L704.988 1301.26L678.675 1350.99Z" fill="#03B8A2" fill-opacity="0.02"/>
<path d="M719.889 1375.2L744.826 1328.1L769.753 1375.2L719.889 1375.2Z" fill="#03B8A2" fill-opacity="0.02"/>
<path d="M877.128 1470.65L855.047 1428.92L899.213 1428.92L877.128 1470.65Z" fill="#03B8A2" fill-opacity="0.02"/>
<path d="M921.859 1498L943.283 1457.52L964.705 1498L921.859 1498Z" fill="#03B8A2" fill-opacity="0.02"/>
<path d="M1075.59 1595.32L1053.78 1554.09L1097.42 1554.09L1075.59 1595.32Z" fill="#03B8A2" fill-opacity="0.02"/>
<path d="M1197.89 1490.81L1207.9 1471.89L1217.92 1490.81L1197.89 1490.81Z" fill="#03B8A2" fill-opacity="0.02"/>
<path d="M1274.05 1449.21L1269 1439.65L1279.11 1439.65L1274.05 1449.21Z" fill="#03B8A2" fill-opacity="0.02"/>
<path d="M676.403 485.946L678.675 481.672L680.937 485.946L676.403 485.946Z" fill="#03B8A2" fill-opacity="0.02"/>
<path d="M468.635 616.81L480.208 594.927L491.786 616.81L468.635 616.81Z" fill="#03B8A2" fill-opacity="0.02"/>
<path d="M480.207 711.463L465.432 683.538L494.983 683.538L480.207 711.463Z" fill="#03B8A2" fill-opacity="0.2"/>
<path d="M458.517 873.171L480.208 832.185L501.903 873.171L458.517 873.171Z" fill="#03B8A2" fill-opacity="0.02"/>
<path d="M480.207 973.676L455.73 927.433L504.684 927.433L480.207 973.676Z" fill="#03B8A2" fill-opacity="0.02"/>
<path d="M452.138 1127.19L480.207 1074.15L508.277 1127.19L452.138 1127.19Z" fill="#03B8A2" fill-opacity="0.02"/>
<path d="M480.207 1229.43L451.162 1174.54L509.268 1174.54L480.207 1229.43Z" fill="#03B8A2" fill-opacity="0.02"/>
<path d="M546.363 1355.59L516.398 1298.96L576.334 1298.96L546.363 1355.59Z" fill="#03B8A2" fill-opacity="0.02"/>
<path d="M583.084 1378.05L612.524 1322.43L641.94 1378.05L583.084 1378.05Z" fill="#03B8A2" fill-opacity="0.02"/>
<path d="M744.826 1478.24L716.706 1425.13L772.946 1425.13L744.826 1478.24Z" fill="#03B8A2" fill-opacity="0.2"/>
<path d="M783.538 1501.78L810.977 1449.94L838.416 1501.78L783.538 1501.78Z" fill="#03B8A2" fill-opacity="0.02"/>
<path d="M943.283 1601.87L916.27 1550.81L970.308 1550.81L943.283 1601.87Z" fill="#03B8A2" fill-opacity="0.02"/>
<path d="M981.685 1626.97L1009.43 1574.55L1037.18 1626.97L981.685 1626.97Z" fill="#03B8A2" fill-opacity="0.02"/>
<path d="M1119.71 1623.38L1141.75 1581.74L1163.78 1623.38L1119.71 1623.38Z" fill="#03B8A2" fill-opacity="0.02"/>
<path d="M1207.9 1587.15L1192.56 1558.18L1223.24 1558.18L1207.9 1587.15Z" fill="#03B8A2" fill-opacity="0.02"/>
<path d="M1335.77 1487.29L1340.22 1478.91L1344.64 1487.29L1335.77 1487.29Z" fill="#03B8A2" fill-opacity="0.02"/>
<path d="M1406.36 1443.97L1405.47 1442.28L1407.25 1442.28L1406.36 1443.97Z" fill="#03B8A2" fill-opacity="0.02"/>
<path d="M612.524 446.395L609.707 441.079L615.336 441.079L612.524 446.395Z" fill="#03B8A2" fill-opacity="0.02"/>
<path d="M540.619 488.135L546.363 477.279L552.112 488.135L540.619 488.135Z" fill="#03B8A2" fill-opacity="0.02"/>
<path d="M405.255 490.068L414.057 473.425L422.858 490.068L405.255 490.068Z" fill="#03B8A2" fill-opacity="0.02"/>
<path d="M414.056 582.663L402.298 560.442L425.814 560.442L414.056 582.663Z" fill="#03B8A2" fill-opacity="0.02"/>
<path d="M395.904 745.949L414.056 711.648L432.209 745.949L395.904 745.949Z" fill="#03B8A2" fill-opacity="0.02"/>
<path d="M414.057 845.039L392.467 804.244L435.642 804.244L414.057 845.039Z" fill="#03B8A2" fill-opacity="0.02"/>
<path d="M387.673 1001.13L414.056 951.269L440.44 1001.13L387.673 1001.13Z" fill="#03B8A2" fill-opacity="0.02"/>
<path d="M414.056 1103.3L385.912 1050.11L442.201 1050.11L414.056 1103.3Z" fill="#03B8A2" fill-opacity="0.02"/>
<path d="M384.171 1253.33L414.056 1196.86L443.942 1253.33L384.171 1253.33Z" fill="#03B8A2" fill-opacity="0.02"/>
<path d="M414.056 1356.13L383.66 1298.69L444.452 1298.69L414.056 1356.13Z" fill="#03B8A2" fill-opacity="0.13"/>
<path d="M449.256 1378.99L480.207 1320.51L511.159 1378.99L449.256 1378.99Z" fill="#03B8A2" fill-opacity="0.02"/>
<path d="M612.524 1482.12L581.338 1423.2L643.696 1423.2L612.524 1482.12Z" fill="#03B8A2" fill-opacity="0.02"/>
<path d="M647.403 1504.2L678.675 1445.12L709.937 1504.2L647.403 1504.2Z" fill="#03B8A2" fill-opacity="0.02"/>
<path d="M810.977 1608.34L778.825 1547.59L843.134 1547.59L810.977 1608.34Z" fill="#03B8A2" fill-opacity="0.02"/>
<path d="M844.45 1630.08L877.128 1568.35L909.811 1630.08L844.45 1630.08Z" fill="#03B8A2" fill-opacity="0.02"/>
<path d="M1009.43 1734.97L975.982 1671.76L1042.89 1671.76L1009.43 1734.97Z" fill="#03B8A2" fill-opacity="0.02"/>
<path d="M1041.67 1755.87L1075.59 1691.76L1109.52 1755.87L1041.67 1755.87Z" fill="#03B8A2" fill-opacity="0.02"/>
<path d="M1141.75 1728.02L1113.81 1675.24L1169.68 1675.24L1141.75 1728.02Z" fill="#03B8A2" fill-opacity="0.02"/>
<path d="M1259.37 1618.74L1274.05 1591.01L1288.73 1618.74L1259.37 1618.74Z" fill="#03B8A2" fill-opacity="0.02"/>
<path d="M1340.21 1578.89L1331.42 1562.31L1348.98 1562.31L1340.21 1578.89Z" fill="#03B8A2" fill-opacity="0.02"/>
<path d="M611.433 360.203L612.524 358.172L613.59 360.203L611.433 360.203Z" fill="#03B8A2" fill-opacity="0.02"/>
<path d="M480.207 450.314L474.278 439.125L486.136 439.125L480.207 450.314Z" fill="#03B8A2" fill-opacity="0.02"/>
<path d="M347.896 454.119L338.959 437.215L356.837 437.215L347.896 454.119Z" fill="#03B8A2" fill-opacity="0.02"/>
<path d="M333.08 618.862L347.896 590.845L362.721 618.862L333.08 618.862Z" fill="#03B8A2" fill-opacity="0.02"/>
<path d="M347.895 715.202L330.158 681.666L365.648 681.666L347.895 715.202Z" fill="#03B8A2" fill-opacity="0.02"/>
<path d="M324.059 874.53L347.895 829.472L371.742 874.53L324.059 874.53Z" fill="#03B8A2" fill-opacity="0.02"/>
<path d="M347.895 975.952L321.617 926.292L374.179 926.292L347.895 975.952Z" fill="#03B8A2" fill-opacity="0.02"/>
<path d="M318.92 1127.76L347.895 1073L376.875 1127.76L318.92 1127.76Z" fill="#03B8A2" fill-opacity="0.02"/>
<path d="M347.895 1229.98L318.42 1174.28L377.391 1174.28L347.895 1229.98Z" fill="#03B8A2" fill-opacity="0.02"/>
<path d="M317.855 1378.42L347.896 1321.67L377.931 1378.42L317.855 1378.42Z" fill="#03B8A2" fill-opacity="0.02"/>
<path d="M480.207 1482.66L448.6 1422.92L511.819 1422.92L480.207 1482.66Z" fill="#03B8A2" fill-opacity="0.02"/>
<path d="M513.981 1504.9L546.363 1443.71L578.736 1504.9L513.981 1504.9Z" fill="#03B8A2" fill-opacity="0.02"/>
<path d="M678.675 1610.9L644.482 1546.29L712.864 1546.29L678.675 1610.9Z" fill="#03B8A2" fill-opacity="0.02"/>
<path d="M709.276 1631.89L744.826 1564.72L780.376 1631.89L709.276 1631.89Z" fill="#03B8A2" fill-opacity="0.02"/>
<path d="M877.128 1740.12L839.592 1669.19L914.669 1669.19L877.128 1740.12Z" fill="#03B8A2" fill-opacity="0.02"/>
<path d="M905.122 1758.54L943.283 1686.41L981.454 1758.54L905.122 1758.54Z" fill="#03B8A2" fill-opacity="0.02"/>
<path d="M1075.59 1867.45L1036.21 1793.02L1114.98 1793.02L1075.59 1867.45Z" fill="#03B8A2" fill-opacity="0.02"/>
<path d="M1180.94 1751.48L1207.9 1700.54L1234.87 1751.48L1180.94 1751.48Z" fill="#03B8A2" fill-opacity="0.02"/>
<path d="M1274.05 1718.12L1253.97 1680.18L1294.14 1680.18L1274.05 1718.12Z" fill="#03B8A2" fill-opacity="0.02"/>
<path d="M1398.56 1614.4L1406.36 1599.68L1414.16 1614.4L1398.56 1614.4Z" fill="#03B8A2" fill-opacity="0.02"/>
<path d="M546.363 320.106L544.567 316.722L548.155 316.722L546.363 320.106Z" fill="#03B8A2" fill-opacity="0.02"/>
<path d="M476.28 361.993L480.207 354.575L484.14 361.993L476.28 361.993Z" fill="#03B8A2" fill-opacity="0.02"/>
<path d="M269.846 492.011L281.745 469.522L293.658 492.011L269.846 492.011Z" fill="#03B8A2" fill-opacity="0.02"/>
<path d="M281.745 586.576L266.889 558.493L296.61 558.493L281.745 586.576Z" fill="#03B8A2" fill-opacity="0.02"/>
<path d="M261.24 747.428L281.745 708.684L302.254 747.428L261.24 747.428Z" fill="#03B8A2" fill-opacity="0.02"/>
<path d="M281.744 847.304L258.358 803.113L305.126 803.113L281.744 847.304Z" fill="#03B8A2" fill-opacity="0.02"/>
<path d="M254.966 1001.38L281.744 950.762L308.543 1001.38L254.966 1001.38Z" fill="#03B8A2" fill-opacity="0.02"/>
<path d="M281.745 1103.03L253.81 1050.25L309.684 1050.25L281.745 1103.03Z" fill="#03B8A2" fill-opacity="0.02"/>
<path d="M253.66 1252.2L281.744 1199.13L309.824 1252.2L253.66 1252.2Z" fill="#03B8A2" fill-opacity="0.02"/>
<path d="M281.744 1352.95L253.875 1300.29L309.619 1300.29L281.744 1352.95Z" fill="#03B8A2" fill-opacity="0.02"/>
<path d="M347.896 1480.19L318.245 1424.16L377.556 1424.16L347.896 1480.19Z" fill="#03B8A2" fill-opacity="0.02"/>
<path d="M383.02 1504.05L414.056 1445.4L445.093 1504.05L383.02 1504.05Z" fill="#03B8A2" fill-opacity="0.02"/>
<path d="M546.363 1610.25L512.685 1546.62L580.037 1546.62L546.363 1610.25Z" fill="#03B8A2" fill-opacity="0.02"/>
<path d="M577.34 1631.66L612.524 1565.19L647.694 1631.66L577.34 1631.66Z" fill="#03B8A2" fill-opacity="0.02"/>
<path d="M744.826 1742.38L705.494 1668.06L784.158 1668.06L744.826 1742.38Z" fill="#03B8A2" fill-opacity="0.02"/>
<path d="M770.023 1760.29L810.977 1682.9L851.93 1760.29L770.023 1760.29Z" fill="#03B8A2" fill-opacity="0.02"/>
<path d="M943.283 1871.61L900.579 1790.94L985.992 1790.94L943.283 1871.61Z" fill="#03B8A2" fill-opacity="0.02"/>
<path d="M965.519 1887.16L1009.43 1804.17L1053.36 1887.16L965.519 1887.16Z" fill="#03B8A2" fill-opacity="0.02"/>
<path d="M1102.58 1884.16L1141.75 1810.16L1180.92 1884.16L1102.58 1884.16Z" fill="#03B8A2" fill-opacity="0.02"/>
<path d="M1207.9 1858.78L1175.39 1797.35L1240.42 1797.35L1207.9 1858.78Z" fill="#03B8A2" fill-opacity="0.02"/>
<path d="M1321.9 1746.03L1340.22 1711.44L1358.51 1746.03L1321.9 1746.03Z" fill="#03B8A2" fill-opacity="0.02"/>
<path d="M1406.36 1707.81L1394.47 1685.34L1418.24 1685.34L1406.36 1707.81Z" fill="#03B8A2" fill-opacity="0.02"/>
<path d="M545.778 234.896L546.363 233.782L546.954 234.896L545.778 234.896Z" fill="#03B8A2" fill-opacity="0.02"/>
<path d="M414.057 323.392L409.664 315.09L418.455 315.09L414.057 323.392Z" fill="#03B8A2" fill-opacity="0.02"/>
<path d="M341.161 363.756L347.895 351.038L354.65 363.756L341.161 363.756Z" fill="#03B8A2" fill-opacity="0.02"/>
<path d="M206.267 365.388L215.588 347.779L224.925 365.388L206.267 365.388Z" fill="#03B8A2" fill-opacity="0.02"/>
<path d="M215.589 457.596L203.891 435.484L227.292 435.484L215.589 457.596Z" fill="#03B8A2" fill-opacity="0.02"/>
<path d="M198.622 620.205L215.589 588.132L232.571 620.205L198.622 620.205Z" fill="#03B8A2" fill-opacity="0.02"/>
<path d="M215.589 717.254L196.225 680.64L234.977 680.64L215.589 717.254Z" fill="#03B8A2" fill-opacity="0.02"/>
<path d="M191.847 874.471L215.589 829.598L239.34 874.471L191.847 874.471Z" fill="#03B8A2" fill-opacity="0.02"/>
<path d="M215.589 974.374L190.556 927.072L240.626 927.072L215.589 974.374Z" fill="#03B8A2" fill-opacity="0.02"/>
<path d="M189.676 1125.83L215.589 1076.86L241.517 1125.83L189.676 1125.83Z" fill="#03B8A2" fill-opacity="0.02"/>
<path d="M215.589 1225.09L189.996 1176.71L241.197 1176.71L215.589 1225.09Z" fill="#03B8A2" fill-opacity="0.02"/>
<path d="M190.886 1375.07L215.589 1328.38L240.301 1375.07L190.886 1375.07Z" fill="#03B8A2" fill-opacity="0.02"/>
<path d="M215.589 1472.85L191.782 1427.83L239.42 1427.83L215.589 1472.85Z" fill="#03B8A2" fill-opacity="0.02"/>
<path d="M254.941 1501.38L281.744 1450.73L308.558 1501.38L254.941 1501.38Z" fill="#03B8A2" fill-opacity="0.13"/>
<path d="M414.057 1607.45L382.61 1548.03L445.503 1548.03L414.057 1607.45Z" fill="#03B8A2" fill-opacity="0.02"/>
<path d="M447.149 1630.31L480.207 1567.86L513.265 1630.31L447.149 1630.31Z" fill="#03B8A2" fill-opacity="0.02"/>
<path d="M612.524 1739.78L575.243 1669.35L649.79 1669.35L612.524 1739.78Z" fill="#03B8A2" fill-opacity="0.02"/>
<path d="M638.817 1759.59L678.675 1684.3L718.513 1759.59L638.817 1759.59Z" fill="#03B8A2" fill-opacity="0.02"/>
<path d="M810.977 1873.89L766.471 1789.8L855.483 1789.8L810.977 1873.89Z" fill="#03B8A2" fill-opacity="0.02"/>
<path d="M830.886 1888.62L877.128 1801.24L923.385 1888.62L830.886 1888.62Z" fill="#03B8A2" fill-opacity="0.02"/>
<path d="M1009.43 2002.82L961.815 1912.83L1057.05 1912.83L1009.43 2002.82Z" fill="#03B8A2" fill-opacity="0.02"/>
<path d="M1027.6 2014.73L1075.59 1924.04L1123.59 2014.73L1027.6 2014.73Z" fill="#03B8A2" fill-opacity="0.02"/>
<path d="M1141.75 1998.34L1097.67 1915.07L1185.82 1915.07L1141.75 1998.34Z" fill="#03B8A2" fill-opacity="0.02"/>
<path d="M1243 1879.06L1274.05 1820.37L1305.11 1879.06L1243 1879.06Z" fill="#03B8A2" fill-opacity="0.02"/>
<path d="M1340.21 1847.32L1316.8 1803.09L1363.62 1803.09L1340.21 1847.32Z" fill="#03B8A2" fill-opacity="0.02"/>
<path d="M480.208 194.373L479.012 192.097L481.413 192.097L480.208 194.373Z" fill="#03B8A2" fill-opacity="0.02"/>
<path d="M411.3 236.26L414.056 231.053L416.808 236.26L411.3 236.26Z" fill="#03B8A2" fill-opacity="0.02"/>
<path d="M281.745 327.021L274.465 313.272L289.02 313.272L281.745 327.021Z" fill="#03B8A2" fill-opacity="0.02"/>
<path d="M149.438 329.352L140.317 312.104L158.559 312.104L149.438 329.352Z" fill="#03B8A2" fill-opacity="0.02"/>
<path d="M136.039 492.955L149.438 467.639L162.847 492.955L136.039 492.955Z" fill="#03B8A2" fill-opacity="0.02"/>
<path d="M149.438 587.635L133.732 557.953L165.159 557.953L149.438 587.635Z" fill="#03B8A2" fill-opacity="0.02"/>
<path d="M129.819 746.871L149.438 709.793L169.056 746.871L129.819 746.871Z" fill="#03B8A2" fill-opacity="0.02"/>
<path d="M149.438 844.575L128.228 804.478L170.657 804.478L149.438 844.575Z" fill="#03B8A2" fill-opacity="0.02"/>
<path d="M126.982 998.659L149.438 956.22L171.898 998.659L126.982 998.659Z" fill="#03B8A2" fill-opacity="0.02"/>
<path d="M149.438 1096.66L126.562 1053.43L172.319 1053.43L149.438 1096.66Z" fill="#03B8A2" fill-opacity="0.02"/>
<path d="M127.703 1248.2L149.438 1207.12L171.183 1248.2L127.703 1248.2Z" fill="#03B8A2" fill-opacity="0.02"/>
<path d="M149.438 1344.78L128.053 1304.37L170.823 1304.37L149.438 1344.78Z" fill="#03B8A2" fill-opacity="0.13"/>
<path d="M129.819 1496.85L149.438 1459.78L169.056 1496.85L129.819 1496.85Z" fill="#03B8A2" fill-opacity="0.02"/>
<path d="M281.745 1600.81L255.587 1551.35L307.923 1551.35L281.745 1600.81Z" fill="#03B8A2" fill-opacity="0.02"/>
<path d="M318.475 1628.03L347.896 1572.44L377.331 1628.03L318.475 1628.03Z" fill="#03B8A2" fill-opacity="0.02"/>
<path d="M480.207 1735.32L446.479 1671.58L513.936 1671.58L480.207 1735.32Z" fill="#03B8A2" fill-opacity="0.02"/>
<path d="M510.178 1757.28L546.363 1688.93L582.538 1757.28L510.178 1757.28Z" fill="#03B8A2" fill-opacity="0.02"/>
<path d="M678.675 1870.82L636.606 1791.33L720.744 1791.33L678.675 1870.82Z" fill="#03B8A2" fill-opacity="0.02"/>
<path d="M699.835 1887.83L744.826 1802.84L789.807 1887.83L699.835 1887.83Z" fill="#03B8A2" fill-opacity="0.02"/>
<path d="M877.128 2004.78L827.959 1911.85L926.303 1911.85L877.128 2004.78Z" fill="#03B8A2" fill-opacity="0.02"/>
<path d="M893.589 2015.79L943.283 1921.88L992.988 2015.79L893.589 2015.79Z" fill="#03B8A2" fill-opacity="0.02"/>
<path d="M1075.59 2131.05L1025.4 2036.22L1125.78 2036.22L1075.59 2131.05Z" fill="#03B8A2" fill-opacity="0.02"/>
<path d="M1165.67 2011.09L1207.9 1931.31L1250.13 2011.09L1165.67 2011.09Z" fill="#03B8A2" fill-opacity="0.02"/>
<path d="M1274.05 1988.06L1238.14 1920.21L1309.96 1920.21L1274.05 1988.06Z" fill="#03B8A2" fill-opacity="0.02"/>
<path d="M1385.21 1872.82L1406.36 1832.85L1427.51 1872.82L1385.21 1872.82Z" fill="#03B8A2" fill-opacity="0.2"/>
<path d="M479.617 109.889L480.207 108.786L480.798 109.889L479.617 109.889Z" fill="#03B8A2" fill-opacity="0.02"/>
<path d="M347.896 197.02L344.593 190.776L351.213 190.776L347.896 197.02Z" fill="#03B8A2" fill-opacity="0.02"/>
<path d="M276.456 237.854L281.745 227.855L287.039 237.854L276.456 237.854Z" fill="#03B8A2" fill-opacity="0.02"/>
<path d="M72.9346 366.043L83.2868 346.475L93.6389 366.043L72.9346 366.043Z" fill="#03B8A2" fill-opacity="0.02"/>
<path d="M83.2868 458.038L71.2384 435.271L95.3352 435.271L83.2868 458.038Z" fill="#03B8A2" fill-opacity="0.02"/>
<path d="M67.566 619.408L83.2868 589.731L99.0027 619.408L67.566 619.408Z" fill="#03B8A2" fill-opacity="0.02"/>
<path d="M83.2869 714.367L66.2101 682.091L100.364 682.091L83.2869 714.367Z" fill="#03B8A2" fill-opacity="0.02"/>
<path d="M64.0536 871.621L83.287 835.296L102.52 871.621L64.0536 871.621Z" fill="#03B8A2" fill-opacity="0.2"/>
<path d="M83.2869 967.464L63.7433 930.533L102.825 930.533L83.2869 967.464Z" fill="#03B8A2" fill-opacity="0.02"/>
<path d="M64.0387 1121.63L83.2871 1085.26L102.535 1121.63L64.0387 1121.63Z" fill="#03B8A2" fill-opacity="0.02"/>
<path d="M83.2869 1216.24L64.7091 1181.14L101.875 1181.14L83.2869 1216.24Z" fill="#03B8A2" fill-opacity="0.02"/>
<path d="M65.9749 1370.41L83.2869 1337.7L100.594 1370.41L65.9749 1370.41Z" fill="#03B8A2" fill-opacity="0.02"/>
<path d="M83.287 1463.4L66.9557 1432.55L99.6233 1432.55L83.287 1463.4Z" fill="#03B8A2" fill-opacity="0.2"/>
<path d="M149.438 1592.02L130.234 1555.74L168.651 1555.74L149.438 1592.02Z" fill="#03B8A2" fill-opacity="0.02"/>
<path d="M192.973 1623.75L215.589 1581L238.219 1623.75L192.973 1623.75Z" fill="#03B8A2" fill-opacity="0.02"/>
<path d="M347.895 1729.68L318.64 1674.4L377.156 1674.4L347.895 1729.68Z" fill="#03B8A2" fill-opacity="0.02"/>
<path d="M382.144 1754.59L414.056 1694.3L445.969 1754.59L382.144 1754.59Z" fill="#03B8A2" fill-opacity="0.02"/>
<path d="M546.363 1864.66L509.187 1794.41L583.539 1794.41L546.363 1864.66Z" fill="#03B8A2" fill-opacity="0.13"/>
<path d="M572.236 1884.85L612.524 1808.76L652.787 1884.85L572.236 1884.85Z" fill="#03B8A2" fill-opacity="0.02"/>
<path d="M744.826 2001.43L698.314 1913.52L791.338 1913.52L744.826 2001.43Z" fill="#03B8A2" fill-opacity="0.02"/>
<path d="M761.808 2015.47L810.977 1922.54L860.151 2015.47L761.808 2015.47Z" fill="#03B8A2" fill-opacity="0.02"/>
<path d="M943.283 2132.31L892.093 2035.59L994.475 2035.59L943.283 2132.31Z" fill="#03B8A2" fill-opacity="0.02"/>
<path d="M957.873 2141.97L1009.43 2044.53L1061.01 2141.97L957.873 2141.97Z" fill="#03B8A2" fill-opacity="0.02"/>
<path d="M1093.11 2140.12L1141.75 2048.23L1190.37 2140.12L1093.11 2140.12Z" fill="#03B8A2" fill-opacity="0.02"/>
<path d="M1207.9 2124.13L1163.2 2039.66L1252.6 2039.66L1207.9 2124.13Z" fill="#03B8A2" fill-opacity="0.02"/>
<path d="M1307.65 2004.99L1340.22 1943.48L1372.76 2004.99L1307.65 2004.99Z" fill="#03B8A2" fill-opacity="0.02"/>
<path d="M1406.36 1975.03L1380.8 1926.72L1431.92 1926.72L1406.36 1975.03Z" fill="#03B8A2" fill-opacity="0.02"/>
<path d="M414.056 69.2082L412.981 67.1777L415.137 67.1777L414.056 69.2082Z" fill="#03B8A2" fill-opacity="0.02"/>
<path d="M345.759 110.872L347.896 106.821L350.047 110.872L345.759 110.872Z" fill="#03B8A2" fill-opacity="0.02"/>
<path d="M215.589 199.646L210.195 189.466L220.988 189.466L215.589 199.646Z" fill="#03B8A2" fill-opacity="0.02"/>
<path d="M142.323 239.011L149.438 225.557L156.558 239.011L142.323 239.011Z" fill="#03B8A2" fill-opacity="0.02"/>
<path d="M9.48083 239.333L17.1362 224.879L24.7915 239.333L9.48083 239.333Z" fill="#03B8A2" fill-opacity="0.02"/>
<path d="M17.1361 329.352L8.01481 312.104L26.2524 312.104L17.1361 329.352Z" fill="#03B8A2" fill-opacity="0.02"/>
<path d="M5.08752 492.109L17.1359 469.342L29.1843 492.109L5.08752 492.109Z" fill="#03B8A2" fill-opacity="0.02"/>
<path d="M17.1362 584.786L3.68678 559.383L30.5855 559.383L17.1362 584.786Z" fill="#03B8A2" fill-opacity="0.02"/>
<path d="M1.67019 744.257L17.1359 715.032L32.6016 744.257L1.67019 744.257Z" fill="#03B8A2" fill-opacity="0.02"/>
<path d="M17.136 838.025L1.10484 807.753L33.1521 807.753L17.136 838.025Z" fill="#03B8A2" fill-opacity="0.02"/>
<path d="M0.989803 994.674L17.136 964.156L33.2822 994.674L0.989803 994.674Z" fill="#03B8A2" fill-opacity="0.02"/>
<path d="M17.1361 1087.79L1.30005 1057.87L32.967 1057.87L17.1361 1087.79Z" fill="#03B8A2" fill-opacity="0.02"/>
<path d="M2.35057 1243.82L17.1359 1215.89L31.9211 1243.82L2.35057 1243.82Z" fill="#03B8A2" fill-opacity="0.02"/>
<path d="M17.136 1335.57L3.04625 1308.97L31.2107 1308.97L17.136 1335.57Z" fill="#03B8A2" fill-opacity="0.02"/>
<path d="M4.26718 1492.61L17.1361 1468.3L30 1492.61L4.26718 1492.61Z" fill="#03B8A2" fill-opacity="0.02"/>
<path d="M17.1361 1584.09L4.22709 1559.7L30.04 1559.7L17.1361 1584.09Z" fill="#03B8A2" fill-opacity="0.02"/>
<path d="M67.3759 1619.53L83.2869 1589.45L99.198 1619.53L67.3759 1619.53Z" fill="#03B8A2" fill-opacity="0.02"/>
<path d="M215.589 1720.93L193.283 1678.78L237.909 1678.78L215.589 1720.93Z" fill="#03B8A2" fill-opacity="0.02"/>
<path d="M256.107 1750.65L281.745 1702.19L307.397 1750.65L256.107 1750.65Z" fill="#03B8A2" fill-opacity="0.02"/>
<path d="M414.056 1858.4L381.834 1797.54L446.269 1797.54L414.056 1858.4Z" fill="#03B8A2" fill-opacity="0.13"/>
<path d="M445.543 1881.33L480.207 1815.83L514.876 1881.33L445.543 1881.33Z" fill="#03B8A2" fill-opacity="0.02"/>
<path d="M612.524 1994.3L571.656 1917.09L653.383 1917.09L612.524 1994.3Z" fill="#03B8A2" fill-opacity="0.02"/>
<path d="M634.635 2012.23L678.675 1929.03L722.706 2012.23L634.635 2012.23Z" fill="#03B8A2" fill-opacity="0.02"/>
<path d="M810.977 2130.44L761.263 2036.52L860.687 2036.52L810.977 2130.44Z" fill="#03B8A2" fill-opacity="0.02"/>
<path d="M825.822 2141.8L877.128 2044.85L928.439 2141.8L825.822 2141.8Z" fill="#03B8A2" fill-opacity="0.02"/>
<path d="M1009.43 2257.79L957.873 2160.34L1061.01 2160.34L1009.43 2257.79Z" fill="#03B8A2" fill-opacity="0.02"/>
<path d="M1025.04 2266.34L1075.59 2170.8L1126.16 2266.34L1025.04 2266.34Z" fill="#03B8A2" fill-opacity="0.02"/>
<path d="M1141.75 2254.64L1092.68 2161.92L1190.82 2161.92L1141.75 2254.64Z" fill="#03B8A2" fill-opacity="0.02"/>
<path d="M1233.15 2135.25L1274.05 2057.96L1314.95 2135.25L1233.15 2135.25Z" fill="#03B8A2" fill-opacity="0.02"/>
<path d="M1340.22 2111.74L1305.35 2045.87L1375.07 2045.87L1340.22 2111.74Z" fill="#03B8A2" fill-opacity="0.02"/>
<path d="M281.745 71.2167L279.083 66.184L284.402 66.184L281.745 71.2167Z" fill="#03B8A2" fill-opacity="0.02"/>
<path d="M211.631 112.023L215.589 104.529L219.572 112.023L211.631 112.023Z" fill="#03B8A2" fill-opacity="0.02"/>
<path d="M83.287 201.212L76.6524 188.68L89.9216 188.68L83.287 201.212Z" fill="#03B8A2" fill-opacity="0.02"/>
<path d="M83.2869 1712.8L67.4309 1682.84L99.1428 1682.84L83.2869 1712.8Z" fill="#03B8A2" fill-opacity="0.2"/>
<path d="M130.405 1746.49L149.438 1710.52L168.476 1746.49L130.405 1746.49Z" fill="#03B8A2" fill-opacity="0.02"/>
<path d="M281.745 1849.78L256.367 1801.85L307.127 1801.85L281.745 1849.78Z" fill="#03B8A2" fill-opacity="0.02"/>
<path d="M318.95 1877.73L347.895 1823.03L376.845 1877.73L318.95 1877.73Z" fill="#03B8A2" fill-opacity="0.02"/>
<path d="M480.207 1985.91L446.009 1921.29L514.411 1921.29L480.207 1985.91Z" fill="#03B8A2" fill-opacity="0.02"/>
<path d="M509.608 2007.64L546.363 1938.19L583.124 2007.64L509.608 2007.64Z" fill="#03B8A2" fill-opacity="0.02"/>
<path d="M678.675 2122.75L635.06 2040.36L722.275 2040.36L678.675 2122.75Z" fill="#03B8A2" fill-opacity="0.02"/>
<path d="M698.039 2138.96L744.826 2050.56L791.614 2138.96L698.039 2138.96Z" fill="#03B8A2" fill-opacity="0.02"/>
<path d="M877.128 2256.99L826.192 2160.74L928.068 2160.74L877.128 2256.99Z" fill="#03B8A2" fill-opacity="0.13"/>
<path d="M892.228 2266.64L943.283 2170.19L994.338 2266.64L892.228 2266.64Z" fill="#03B8A2" fill-opacity="0.02"/>
<path d="M1075.59 2379.84L1026.37 2286.81L1124.82 2286.81L1075.59 2379.84Z" fill="#03B8A2" fill-opacity="0.02"/>
<path d="M1162.72 2262.95L1207.9 2177.57L1253.08 2262.95L1162.72 2262.95Z" fill="#03B8A2" fill-opacity="0.02"/>
<path d="M1274.05 2244.54L1233 2166.97L1315.11 2166.97L1274.05 2244.54Z" fill="#03B8A2" fill-opacity="0.02"/>
<path d="M1377.08 2127.94L1406.36 2072.6L1435.64 2127.94L1377.08 2127.94Z" fill="#03B8A2" fill-opacity="0.02"/>
<path d="M149.438 73.0236L145.345 65.278L153.541 65.278L149.438 73.0236Z" fill="#03B8A2" fill-opacity="0.02"/>
<path d="M78.1836 112.738L83.2871 103.099L88.3906 112.738L78.1836 112.738Z" fill="#03B8A2" fill-opacity="0.02"/>
<path d="M3.79667 1742.89L17.1359 1717.69L30.4751 1742.89L3.79667 1742.89Z" fill="#03B8A2" fill-opacity="0.02"/>
<path d="M149.438 1841.68L130.5 1805.9L168.376 1805.9L149.438 1841.68Z" fill="#03B8A2" fill-opacity="0.02"/>
<path d="M193.914 1873.15L215.589 1832.18L237.274 1873.15L193.914 1873.15Z" fill="#03B8A2" fill-opacity="0.02"/>
<path d="M347.896 1978.03L319.951 1925.23L375.855 1925.23L347.896 1978.03Z" fill="#03B8A2" fill-opacity="0.02"/>
<path d="M383.56 2003.7L414.057 1946.08L444.543 2003.7L383.56 2003.7Z" fill="#03B8A2" fill-opacity="0.02"/>
<path d="M546.363 2112.66L510.764 2045.4L581.958 2045.4L546.363 2112.66Z" fill="#03B8A2" fill-opacity="0.02"/>
<path d="M573.402 2134.13L612.524 2060.21L651.636 2134.13L573.402 2134.13Z" fill="#03B8A2" fill-opacity="0.02"/>
<path d="M744.826 2250.56L698.989 2163.96L790.663 2163.96L744.826 2250.56Z" fill="#03B8A2" fill-opacity="0.02"/>
<path d="M762.593 2264.97L810.977 2173.54L859.365 2264.97L762.593 2264.97Z" fill="#03B8A2" fill-opacity="0.02"/>
<path d="M943.283 2380.17L893.779 2286.65L992.782 2286.65L943.283 2380.17Z" fill="#03B8A2" fill-opacity="0.02"/>
<path d="M960.201 2390.49L1009.43 2297.48L1058.66 2390.49L960.201 2390.49Z" fill="#03B8A2" fill-opacity="0.02"/>
<path d="M1095.71 2388.48L1141.75 2301.49L1187.79 2388.48L1095.71 2388.48Z" fill="#03B8A2" fill-opacity="0.02"/>
<path d="M1207.9 2373.02L1164.09 2290.23L1251.72 2290.23L1207.9 2373.02Z" fill="#03B8A2" fill-opacity="0.13"/>
<path d="M1304.88 2256.74L1340.21 2189.98L1375.53 2256.74L1304.88 2256.74Z" fill="#03B8A2" fill-opacity="0.02"/>
<path d="M1406.36 2230.17L1376.71 2174.15L1436.01 2174.15L1406.36 2230.17Z" fill="#03B8A2" fill-opacity="0.13"/>
<path d="M17.1361 73.8586L12.3578 64.8635L21.8994 64.8635L17.1361 73.8586Z" fill="#03B8A2" fill-opacity="0.02"/>
<path d="M17.1359 1835.2L3.33632 1809.14L30.9355 1809.14L17.1359 1835.2Z" fill="#03B8A2" fill-opacity="0.02"/>
<path d="M67.2357 1869.6L83.2868 1839.29L99.333 1869.6L67.2357 1869.6Z" fill="#03B8A2" fill-opacity="0.13"/>
<path d="M215.589 1969.16L194.689 1929.65L236.508 1929.65L215.589 1969.16Z" fill="#03B8A2" fill-opacity="0.02"/>
<path d="M258.338 1999.24L281.745 1955L305.161 1999.24L258.338 1999.24Z" fill="#03B8A2" fill-opacity="0.02"/>
<path d="M414.056 2104.41L385.016 2049.54L443.096 2049.54L414.056 2104.41Z" fill="#03B8A2" fill-opacity="0.02"/>
<path d="M448.936 2129.18L480.207 2070.11L511.479 2129.18L448.936 2129.18Z" fill="#03B8A2" fill-opacity="0.02"/>
<path d="M612.524 2240.26L574.858 2169.1L650.17 2169.1L612.524 2240.26Z" fill="#03B8A2" fill-opacity="0.13"/>
<path d="M637.486 2260.43L678.675 2182.61L719.854 2260.43L637.486 2260.43Z" fill="#03B8A2" fill-opacity="0.02"/>
<path d="M810.977 2376.77L764.184 2288.35L857.774 2288.35L810.977 2376.77Z" fill="#03B8A2" fill-opacity="0.02"/>
<path d="M829.085 2389.76L877.128 2298.95L925.177 2389.76L829.085 2389.76Z" fill="#03B8A2" fill-opacity="0.02"/>
<path d="M1009.43 2502.22L962.283 2413.12L1056.6 2413.12L1009.43 2502.22Z" fill="#03B8A2" fill-opacity="0.02"/>
<path d="M1030.29 2513.02L1075.59 2427.42L1120.9 2513.02L1030.29 2513.02Z" fill="#03B8A2" fill-opacity="0.02"/>
<path d="M1141.75 2497.87L1098.03 2415.29L1185.46 2415.29L1141.75 2497.87Z" fill="#03B8A2" fill-opacity="0.02"/>
<path d="M1235.99 2383.47L1274.05 2311.53L1312.12 2383.47L1235.99 2383.47Z" fill="#03B8A2" fill-opacity="0.02"/>
<path d="M1340.22 2360.49L1306.35 2296.49L1374.08 2296.49L1340.22 2360.49Z" fill="#03B8A2" fill-opacity="0.02"/>
<path d="M83.2868 1962.73L67.4908 1932.87L99.0828 1932.87L83.2868 1962.73Z" fill="#03B8A2" fill-opacity="0.02"/>
<path d="M131.73 1995.64L149.438 1962.19L167.155 1995.64L131.73 1995.64Z" fill="#03B8A2" fill-opacity="0.02"/>
<path d="M281.745 2095.38L259.874 2054.05L303.63 2054.05L281.745 2095.38Z" fill="#03B8A2" fill-opacity="0.02"/>
<path d="M323.358 2124.94L347.895 2078.57L372.442 2124.94L323.358 2124.94Z" fill="#03B8A2" fill-opacity="0.02"/>
<path d="M480.207 2229.52L451.072 2174.48L509.347 2174.48L480.207 2229.52Z" fill="#03B8A2" fill-opacity="0.02"/>
<path d="M514.311 2254.67L546.363 2194.12L578.406 2254.67L514.311 2254.67Z" fill="#03B8A2" fill-opacity="0.02"/>
<path d="M678.675 2367.3L639.398 2293.08L717.947 2293.08L678.675 2367.3Z" fill="#03B8A2" fill-opacity="0.02"/>
<path d="M702.272 2386.29L744.826 2305.89L787.381 2386.29L702.272 2386.29Z" fill="#03B8A2" fill-opacity="0.02"/>
<path d="M877.128 2501.07L830.886 2413.69L923.375 2413.69L877.128 2501.07Z" fill="#03B8A2" fill-opacity="0.02"/>
<path d="M896.981 2513.65L943.283 2426.15L989.597 2513.65L896.981 2513.65Z" fill="#03B8A2" fill-opacity="0.2"/>
<path d="M1075.59 2622L1032.58 2540.73L1118.61 2540.73L1075.59 2622Z" fill="#03B8A2" fill-opacity="0.02"/>
<path d="M1169.57 2508.63L1207.9 2436.2L1246.23 2508.63L1169.57 2508.63Z" fill="#03B8A2" fill-opacity="0.02"/>
<path d="M1274.05 2486.73L1239.19 2420.87L1308.91 2420.87L1274.05 2486.73Z" fill="#03B8A2" fill-opacity="0.02"/>
<path d="M1379.61 2376.34L1406.36 2325.79L1433.12 2376.34L1379.61 2376.34Z" fill="#03B8A2" fill-opacity="0.02"/>
<path d="M3.04625 1993.36L17.136 1966.75L31.2207 1993.36L3.04625 1993.36Z" fill="#03B8A2" fill-opacity="0.02"/>
<path d="M149.438 2088.73L132.846 2057.38L166.029 2057.38L149.438 2088.73Z" fill="#03B8A2" fill-opacity="0.02"/>
<path d="M197.701 2120.77L215.589 2086.95L233.491 2120.77L197.701 2120.77Z" fill="#03B8A2" fill-opacity="0.02"/>
<path d="M347.895 2220.76L325.725 2178.85L370.071 2178.85L347.895 2220.76Z" fill="#03B8A2" fill-opacity="0.02"/>
<path d="M389.574 2249.91L414.056 2203.65L438.533 2249.91L389.574 2249.91Z" fill="#03B8A2" fill-opacity="0.2"/>
<path d="M546.363 2354.9L516.933 2299.27L575.799 2299.27L546.363 2354.9Z" fill="#03B8A2" fill-opacity="0.02"/>
<path d="M579.221 2380.46L612.524 2317.56L645.802 2380.46L579.221 2380.46Z" fill="#03B8A2" fill-opacity="0.02"/>
<path d="M744.826 2493.88L704.288 2417.29L785.364 2417.29L744.826 2493.88Z" fill="#03B8A2" fill-opacity="0.02"/>
<path d="M767.752 2511.7L810.977 2430.04L854.202 2511.7L767.752 2511.7Z" fill="#03B8A2" fill-opacity="0.02"/>
<path d="M943.283 2623.92L898.738 2539.77L987.833 2539.77L943.283 2623.92Z" fill="#03B8A2" fill-opacity="0.02"/>
<path d="M966.004 2636.83L1009.43 2554.78L1052.86 2636.83L966.004 2636.83Z" fill="#03B8A2" fill-opacity="0.02"/>
<path d="M1103.47 2633.59L1141.75 2561.28L1180.02 2633.59L1103.47 2633.59Z" fill="#03B8A2" fill-opacity="0.02"/>
<path d="M1207.9 2612L1172.83 2545.73L1242.98 2545.73L1207.9 2612Z" fill="#03B8A2" fill-opacity="0.02"/>
<path d="M1312.15 2502.16L1340.21 2449.15L1368.25 2502.16L1312.15 2502.16Z" fill="#03B8A2" fill-opacity="0.13"/>
<path d="M1406.36 2472.9L1382.49 2427.78L1430.23 2427.78L1406.36 2472.9Z" fill="#03B8A2" fill-opacity="0.02"/>
<path d="M17.1359 2085.25L3.29635 2059.11L30.9705 2059.11L17.1359 2085.25Z" fill="#03B8A2" fill-opacity="0.02"/>
<path d="M69.1571 2118.39L83.2869 2091.7L97.4167 2118.39L69.1571 2118.39Z" fill="#03B8A2" fill-opacity="0.02"/>
<path d="M215.589 2212.63L199.873 2182.92L231.32 2182.92L215.589 2212.63Z" fill="#03B8A2" fill-opacity="0.02"/>
<path d="M264.367 2245.44L281.745 2212.59L299.127 2245.44L264.367 2245.44Z" fill="#03B8A2" fill-opacity="0.02"/>
<path d="M414.056 2345.28L392.256 2304.09L435.856 2304.09L414.056 2345.28Z" fill="#03B8A2" fill-opacity="0.02"/>
<path d="M456.361 2374.51L480.207 2329.44L504.059 2374.51L456.361 2374.51Z" fill="#03B8A2" fill-opacity="0.02"/>
<path d="M612.524 2482.05L581.368 2423.21L643.666 2423.21L612.524 2482.05Z" fill="#03B8A2" fill-opacity="0.02"/>
<path d="M643.516 2506.62L678.675 2440.19L713.829 2506.62L643.516 2506.62Z" fill="#03B8A2" fill-opacity="0.02"/>
<path d="M810.977 2620.41L769.228 2541.52L852.721 2541.52L810.977 2620.41Z" fill="#03B8A2" fill-opacity="0.02"/>
<path d="M833.918 2636.71L877.128 2555.04L920.348 2636.71L833.918 2636.71Z" fill="#03B8A2" fill-opacity="0.02"/>
<path d="M1009.43 2745.99L967.226 2666.23L1051.65 2666.23L1009.43 2745.99Z" fill="#03B8A2" fill-opacity="0.02"/>
<path d="M1035.71 2759.61L1075.59 2684.24L1115.48 2759.61L1035.71 2759.61Z" fill="#03B8A2" fill-opacity="0.02"/>
<path d="M1141.75 2738.71L1105.32 2669.87L1178.18 2669.87L1141.75 2738.71Z" fill="#03B8A2" fill-opacity="0.02"/>
<path d="M1245.85 2627.25L1274.05 2573.97L1302.26 2627.25L1245.85 2627.25Z" fill="#03B8A2" fill-opacity="0.02"/>
<path d="M1340.21 2598.67L1315.73 2552.4L1364.7 2552.4L1340.21 2598.67Z" fill="#03B8A2" fill-opacity="0.02"/>
<path d="M83.2869 2208.48L70.8683 2185L95.7056 2185L83.2869 2208.48Z" fill="#03B8A2" fill-opacity="0.02"/>
<path d="M136.764 2242.48L149.438 2218.52L162.112 2242.48L136.764 2242.48Z" fill="#03B8A2" fill-opacity="0.02"/>
<path d="M281.744 2336.35L267.034 2308.56L296.46 2308.56L281.744 2336.35Z" fill="#03B8A2" fill-opacity="0.02"/>
<path d="M331.244 2369.98L347.896 2338.5L364.562 2369.98L331.244 2369.98Z" fill="#03B8A2" fill-opacity="0.02"/>
<path d="M480.208 2469.49L459.038 2429.48L501.377 2429.48L480.208 2469.49Z" fill="#03B8A2" fill-opacity="0.02"/>
<path d="M521.861 2499.91L546.363 2453.62L570.86 2499.91L521.861 2499.91Z" fill="#03B8A2" fill-opacity="0.02"/>
<path d="M678.675 2610.12L645.082 2546.66L712.263 2546.66L678.675 2610.12Z" fill="#03B8A2" fill-opacity="0.02"/>
<path d="M707.365 2633.08L744.826 2562.3L782.277 2633.08L707.365 2633.08Z" fill="#03B8A2" fill-opacity="0.02"/>
<path d="M877.128 2746.05L834.868 2666.2L919.397 2666.2L877.128 2746.05Z" fill="#03B8A2" fill-opacity="0.02"/>
<path d="M900.919 2761.17L943.283 2681.11L985.652 2761.17L900.919 2761.17Z" fill="#03B8A2" fill-opacity="0.13"/>
<path d="M1075.59 2867.47L1036.18 2792.99L1115 2792.99L1075.59 2867.47Z" fill="#03B8A2" fill-opacity="0.02"/>
<path d="M1177.27 2753.78L1207.9 2695.89L1238.53 2753.78L1177.27 2753.78Z" fill="#03B8A2" fill-opacity="0.02"/>
<path d="M1274.05 2725.21L1248.34 2676.62L1299.78 2676.62L1274.05 2725.21Z" fill="#03B8A2" fill-opacity="0.02"/>
<path d="M1388.86 2620.51L1406.36 2587.44L1423.86 2620.51L1388.86 2620.51Z" fill="#03B8A2" fill-opacity="0.02"/>
<path d="M6.2383 2241.36L17.1359 2220.76L28.0234 2241.36L6.2383 2241.36Z" fill="#03B8A2" fill-opacity="0.02"/>
<path d="M149.438 2330.77L139.156 2311.34L159.72 2311.34L149.438 2330.77Z" fill="#03B8A2" fill-opacity="0.02"/>
<path d="M205.036 2366.15L215.589 2346.17L226.166 2366.15L205.036 2366.15Z" fill="#03B8A2" fill-opacity="0.2"/>
<path d="M347.896 2460.18L334.116 2434.14L361.68 2434.14L347.896 2460.18Z" fill="#03B8A2" fill-opacity="0.02"/>
<path d="M397.91 2494.66L414.056 2464.16L430.193 2494.66L397.91 2494.66Z" fill="#03B8A2" fill-opacity="0.02"/>
<path d="M546.363 2595.9L524.073 2553.78L568.649 2553.78L546.363 2595.9Z" fill="#03B8A2" fill-opacity="0.02"/>
<path d="M585.24 2626.66L612.524 2575.12L639.808 2626.66L585.24 2626.66Z" fill="#03B8A2" fill-opacity="0.02"/>
<path d="M744.826 2738.75L708.361 2669.84L781.291 2669.84L744.826 2738.75Z" fill="#03B8A2" fill-opacity="0.02"/>
<path d="M771.354 2759.44L810.977 2684.57L850.594 2759.44L771.354 2759.44Z" fill="#03B8A2" fill-opacity="0.02"/>
<path d="M943.283 2870.9L901.135 2791.27L985.428 2791.27L943.283 2870.9Z" fill="#03B8A2" fill-opacity="0.02"/>
<path d="M967.675 2885.79L1009.43 2806.86L1051.21 2885.79L967.675 2885.79Z" fill="#03B8A2" fill-opacity="0.02"/>
<path d="M1106.95 2881.39L1141.75 2815.65L1176.54 2881.39L1106.95 2881.39Z" fill="#03B8A2" fill-opacity="0.02"/>
<path d="M1207.9 2854.89L1178.46 2799.27L1237.34 2799.27L1207.9 2854.89Z" fill="#03B8A2" fill-opacity="0.02"/>
<path d="M1320.58 2746.84L1340.21 2709.75L1359.83 2746.84L1320.58 2746.84Z" fill="#03B8A2" fill-opacity="0.2"/>
<path d="M1406.36 2712.06L1391.08 2683.2L1421.64 2683.2L1406.36 2712.06Z" fill="#03B8A2" fill-opacity="0.02"/>
<path d="M17.1359 2328.8L8.40989 2312.33L25.8569 2312.33L17.1359 2328.8Z" fill="#03B8A2" fill-opacity="0.02"/>
<path d="M75.3114 2364.51L83.2869 2349.43L91.2625 2364.51L75.3114 2364.51Z" fill="#03B8A2" fill-opacity="0.02"/>
<path d="M215.589 2453.03L207.498 2437.72L223.699 2437.72L215.589 2453.03Z" fill="#03B8A2" fill-opacity="0.02"/>
<path d="M272.583 2490.26L281.744 2472.93L290.921 2490.26L272.583 2490.26Z" fill="#03B8A2" fill-opacity="0.02"/>
<path d="M414.056 2584.92L400.482 2559.26L427.631 2559.26L414.056 2584.92Z" fill="#03B8A2" fill-opacity="0.02"/>
<path d="M463.676 2619.9L480.207 2588.66L496.744 2619.9L463.676 2619.9Z" fill="#03B8A2" fill-opacity="0.02"/>
<path d="M612.524 2725.55L586.536 2676.46L638.507 2676.46L612.524 2725.55Z" fill="#03B8A2" fill-opacity="0.02"/>
<path d="M647.333 2754.22L678.675 2695.02L709.997 2754.22L647.333 2754.22Z" fill="#03B8A2" fill-opacity="0.02"/>
<path d="M810.977 2867.31L771.685 2793.07L850.274 2793.07L810.977 2867.31Z" fill="#03B8A2" fill-opacity="0.02"/>
<path d="M835.314 2885.82L877.128 2806.81L918.947 2885.82L835.314 2885.82Z" fill="#03B8A2" fill-opacity="0.02"/>
<path d="M1009.43 2996.68L966.665 2915.87L1052.2 2915.87L1009.43 2996.68Z" fill="#03B8A2" fill-opacity="0.02"/>
<path d="M1034.89 3010.11L1075.59 2933.19L1116.3 3010.11L1034.89 3010.11Z" fill="#03B8A2" fill-opacity="0.02"/>
<path d="M1141.75 2987.43L1106.33 2920.5L1177.16 2920.5L1141.75 2987.43Z" fill="#03B8A2" fill-opacity="0.13"/>
<path d="M1250.71 2874.19L1274.05 2830.07L1297.4 2874.19L1250.71 2874.19Z" fill="#03B8A2" fill-opacity="0.02"/>
<path d="M1340.21 2840.8L1321.96 2806.32L1358.46 2806.32L1340.21 2840.8Z" fill="#03B8A2" fill-opacity="0.02"/>
<path d="M83.2867 2449.99L77.5978 2439.23L88.9707 2439.23L83.2867 2449.99Z" fill="#03B8A2" fill-opacity="0.02"/>
<path d="M144.044 2487.88L149.438 2477.68L154.832 2487.88L144.044 2487.88Z" fill="#03B8A2" fill-opacity="0.02"/>
<path d="M281.744 2576.29L275.025 2563.59L288.479 2563.59L281.744 2576.29Z" fill="#03B8A2" fill-opacity="0.02"/>
<path d="M339.24 2614.94L347.896 2598.56L356.572 2614.94L339.24 2614.94Z" fill="#03B8A2" fill-opacity="0.02"/>
<path d="M480.207 2711.16L465.647 2683.64L494.772 2683.64L480.207 2711.16Z" fill="#03B8A2" fill-opacity="0.02"/>
<path d="M527.46 2746.39L546.363 2710.68L565.271 2746.39L527.46 2746.39Z" fill="#03B8A2" fill-opacity="0.2"/>
<path d="M678.675 2856.36L648.074 2798.54L709.276 2798.54L678.675 2856.36Z" fill="#03B8A2" fill-opacity="0.02"/>
<path d="M709.276 2881.87L744.826 2814.69L780.375 2881.87L709.276 2881.87Z" fill="#03B8A2" fill-opacity="0.02"/>
<path d="M877.128 2996.74L834.313 2915.85L919.948 2915.85L877.128 2996.74Z" fill="#03B8A2" fill-opacity="0.02"/>
<path d="M899.253 3012.21L943.283 2929.01L987.31 3012.21L899.253 3012.21Z" fill="#03B8A2" fill-opacity="0.02"/>
<path d="M1075.59 3120.81L1033.52 3041.32L1117.66 3041.32L1075.59 3120.81Z" fill="#03B8A2" fill-opacity="0.2"/>
<path d="M1177.95 3003.34L1207.9 2946.75L1237.85 3003.34L1177.95 3003.34Z" fill="#03B8A2" fill-opacity="0.02"/>
<path d="M1274.05 2972.22L1250.71 2928.1L1297.4 2928.1L1274.05 2972.22Z" fill="#03B8A2" fill-opacity="0.02"/>
<path d="M1393.84 2867.37L1406.36 2843.71L1418.88 2867.37L1393.84 2867.37Z" fill="#03B8A2" fill-opacity="0.02"/>
<path d="M12.4778 2487.41L17.1361 2478.63L21.7893 2487.41L12.4778 2487.41Z" fill="#03B8A2" fill-opacity="0.02"/>
<path d="M149.438 2571.75L146.326 2565.86L152.565 2565.86L149.438 2571.75Z" fill="#03B8A2" fill-opacity="0.02"/>
<path d="M212.011 2611.74L215.589 2604.97L219.181 2611.74L212.011 2611.74Z" fill="#03B8A2" fill-opacity="0.02"/>
<path d="M347.896 2701.34L341.141 2688.56L354.665 2688.56L347.896 2701.34Z" fill="#03B8A2" fill-opacity="0.02"/>
<path d="M404.325 2740.62L414.056 2722.21L423.788 2740.62L404.325 2740.62Z" fill="#03B8A2" fill-opacity="0.02"/>
<path d="M546.363 2840.27L528.526 2806.58L564.201 2806.58L546.363 2840.27Z" fill="#03B8A2" fill-opacity="0.02"/>
<path d="M588.342 2874.7L612.524 2829.03L636.691 2874.7L588.342 2874.7Z" fill="#03B8A2" fill-opacity="0.02"/>
<path d="M744.826 2988.25L708.751 2920.09L780.891 2920.09L744.826 2988.25Z" fill="#03B8A2" fill-opacity="0.02"/>
<path d="M770.334 3010.08L810.977 2933.28L851.62 3010.08L770.334 3010.08Z" fill="#03B8A2" fill-opacity="0.02"/>
<path d="M943.283 3125L897.882 3039.21L988.689 3039.21L943.283 3125Z" fill="#03B8A2" fill-opacity="0.02"/>
<path d="M963.928 3138.13L1009.43 3052.16L1054.94 3138.13L963.928 3138.13Z" fill="#03B8A2" fill-opacity="0.02"/>
<path d="M1103.62 3133.49L1141.75 3061.45L1179.87 3133.49L1103.62 3133.49Z" fill="#03B8A2" fill-opacity="0.02"/>
<path d="M1207.9 3106.95L1176.82 3048.24L1238.98 3048.24L1207.9 3106.95Z" fill="#03B8A2" fill-opacity="0.02"/>
<path d="M1322.67 2995.53L1340.22 2962.39L1357.75 2995.53L1322.67 2995.53Z" fill="#03B8A2" fill-opacity="0.13"/>
<path d="M1406.36 2958.15L1394.19 2935.16L1418.53 2935.16L1406.36 2958.15Z" fill="#03B8A2" fill-opacity="0.02"/>
<path d="M17.1359 2571.48L14.2239 2565.98L20.043 2565.98L17.1359 2571.48Z" fill="#03B8A2" fill-opacity="0.02"/>
<path d="M81.4606 2610.63L83.2868 2607.18L85.113 2610.63L81.4606 2610.63Z" fill="#03B8A2" fill-opacity="0.02"/>
<path d="M215.589 2695.21L213.687 2691.62L217.5 2691.62L215.589 2695.21Z" fill="#03B8A2" fill-opacity="0.02"/>
<path d="M278.743 2736.37L281.745 2730.7L284.752 2736.37L278.743 2736.37Z" fill="#03B8A2" fill-opacity="0.02"/>
<path d="M414.057 2828.34L405.691 2812.54L422.412 2812.54L414.057 2828.34Z" fill="#03B8A2" fill-opacity="0.02"/>
<path d="M468.099 2867.11L480.207 2844.22L492.326 2867.11L468.099 2867.11Z" fill="#03B8A2" fill-opacity="0.02"/>
<path d="M612.524 2973L588.557 2927.72L636.466 2927.72L612.524 2973Z" fill="#03B8A2" fill-opacity="0.02"/>
<path d="M647.934 3003.84L678.675 2945.76L709.411 3003.84L647.934 3003.84Z" fill="#03B8A2" fill-opacity="0.02"/>
<path d="M810.977 3120.12L769.448 3041.66L852.506 3041.66L810.977 3120.12Z" fill="#03B8A2" fill-opacity="0.02"/>
<path d="M831.841 3138L877.128 3052.43L922.424 3138L831.841 3138Z" fill="#03B8A2" fill-opacity="0.02"/>
<path d="M1249.02 3125.24L1274.05 3077.94L1299.08 3125.24L1249.02 3125.24Z" fill="#03B8A2" fill-opacity="0.02"/>
<path d="M1340.21 3090.79L1321.96 3056.32L1358.46 3056.32L1340.21 3090.79Z" fill="#03B8A2" fill-opacity="0.02"/>
<path d="M83.2869 2693.44L82.7915 2692.5L83.7822 2692.5L83.2869 2693.44Z" fill="#03B8A2" fill-opacity="0.02"/>
<path d="M149.087 2734.71L149.438 2734.03L149.798 2734.71L149.087 2734.71Z" fill="#03B8A2" fill-opacity="0.02"/>
<path d="M281.745 2820.14L279.898 2816.65L283.586 2816.65L281.745 2820.14Z" fill="#03B8A2" fill-opacity="0.02"/>
<path d="M343.683 2862.13L347.896 2854.17L352.114 2862.13L343.683 2862.13Z" fill="#03B8A2" fill-opacity="0.02"/>
<path d="M480.207 2957.37L468.654 2935.53L491.765 2935.53L480.207 2957.37Z" fill="#03B8A2" fill-opacity="0.02"/>
<path d="M529.486 2995.11L546.363 2963.23L563.235 2995.11L529.486 2995.11Z" fill="#03B8A2" fill-opacity="0.2"/>
<path d="M678.675 3107.17L647.413 3048.12L709.917 3048.12L678.675 3107.17Z" fill="#03B8A2" fill-opacity="0.02"/>
<path d="M707.085 3133.24L744.826 3061.93L782.572 3133.24L707.085 3133.24Z" fill="#03B8A2" fill-opacity="0.13"/>
<path d="M1393.5 3117.58L1406.36 3093.27L1419.23 3117.58L1393.5 3117.58Z" fill="#03B8A2" fill-opacity="0.02"/>
<path d="M16.5904 2734.83L17.1359 2733.79L17.6763 2734.83L16.5904 2734.83Z" fill="#03B8A2" fill-opacity="0.02"/>
<path d="M215.569 2859.5L215.589 2859.45L215.619 2859.5L215.569 2859.5Z" fill="#03B8A2" fill-opacity="0.02"/>
<path d="M347.895 2947.46L344.208 2940.49L351.603 2940.49L347.895 2947.46Z" fill="#03B8A2" fill-opacity="0.02"/>
<path d="M407.257 2988.75L414.056 2975.92L420.846 2988.75L407.257 2988.75Z" fill="#03B8A2" fill-opacity="0.02"/>
<path d="M546.363 3089.19L529.391 3057.12L563.34 3057.12L546.363 3089.19Z" fill="#03B8A2" fill-opacity="0.02"/>
<path d="M588.142 3124.83L612.524 3078.77L636.896 3124.83L588.142 3124.83Z" fill="#03B8A2" fill-opacity="0.02"/>
<path d="M281.119 2984.88L281.744 2983.68L282.38 2984.88L281.119 2984.88Z" fill="#03B8A2" fill-opacity="0.02"/>
<path d="M414.057 3076.07L407.507 3063.68L420.606 3063.68L414.057 3076.07Z" fill="#03B8A2" fill-opacity="0.02"/>
<path d="M469.14 3116.45L480.207 3095.54L491.28 3116.45L469.14 3116.45Z" fill="#03B8A2" fill-opacity="0.13"/>
<path d="M281.745 3068.34L281.334 3067.55L282.17 3067.55L281.745 3068.34Z" fill="#03B8A2" fill-opacity="0.02"/>
<path d="M344.868 3111.39L347.896 3105.66L350.933 3111.39L344.868 3111.39Z" fill="#03B8A2" fill-opacity="0.02"/>
<path d="M1412.44 794.489L1412.46 794.469L1412.46 794.489L1412.44 794.489Z" fill="#03B8A2" fill-opacity="0.02"/>
<path d="M1346.01 669.663L1346.3 669.117L1346.59 669.663L1346.01 669.663Z" fill="#03B8A2" fill-opacity="0.02"/>
<path d="M1280.15 628.141L1279.88 627.655L1280.41 627.655L1280.15 628.141Z" fill="#03B8A2" fill-opacity="0.02"/>
<path d="M1412.46 629.288L1411.28 627.083L1413.63 627.083L1412.46 629.288Z" fill="#03B8A2" fill-opacity="0.02"/>
<path d="M1279.47 544.918L1280.15 543.63L1280.83 544.918L1279.47 544.918Z" fill="#03B8A2" fill-opacity="0.02"/>
<path d="M1213.99 503.522L1213.44 502.468L1214.55 502.468L1213.99 503.522Z" fill="#03B8A2" fill-opacity="0.02"/>
<path d="M1081.43 419.649L1081.68 419.175L1081.94 419.649L1081.43 419.649Z" fill="#03B8A2" fill-opacity="0.02"/>
<path d="M1015.53 377.833L1015.52 377.812L1015.55 377.812L1015.53 377.833Z" fill="#03B8A2" fill-opacity="0.02"/>
<path d="M1410.85 545.497L1412.46 542.462L1414.06 545.497L1410.85 545.497Z" fill="#03B8A2" fill-opacity="0.02"/>
<path d="M1346.3 504.685L1344.82 501.89L1347.78 501.89L1346.3 504.685Z" fill="#03B8A2" fill-opacity="0.02"/>
<path d="M1212.82 420.228L1213.99 418.017L1215.16 420.228L1212.82 420.228Z" fill="#03B8A2" fill-opacity="0.02"/>
<path d="M1147.83 378.909L1146.98 377.276L1148.7 377.276L1147.83 378.909Z" fill="#03B8A2" fill-opacity="0.02"/>
<path d="M1014.97 294.839L1015.53 293.797L1016.09 294.839L1014.97 294.839Z" fill="#03B8A2" fill-opacity="0.02"/>
<path d="M949.373 253.192L949.082 252.646L949.669 252.646L949.373 253.192Z" fill="#03B8A2" fill-opacity="0.02"/>
<path d="M1344.19 420.817L1346.3 416.833L1348.41 420.817L1344.19 420.817Z" fill="#03B8A2" fill-opacity="0.02"/>
<path d="M1280.15 380.082L1278.35 376.692L1281.94 376.692L1280.15 380.082Z" fill="#03B8A2" fill-opacity="0.02"/>
<path d="M1146.36 295.429L1147.83 292.629L1149.32 295.429L1146.36 295.429Z" fill="#03B8A2" fill-opacity="0.02"/>
<path d="M1081.68 254.295L1080.51 252.089L1082.84 252.089L1081.68 254.295Z" fill="#03B8A2" fill-opacity="0.02"/>
<path d="M948.697 169.914L949.373 168.642L950.053 169.914L948.697 169.914Z" fill="#03B8A2" fill-opacity="0.02"/>
<path d="M883.222 128.518L882.672 127.481L883.777 127.481L883.222 128.518Z" fill="#03B8A2" fill-opacity="0.02"/>
<path d="M1412.46 381.299L1409.7 376.081L1415.22 376.081L1412.46 381.299Z" fill="#03B8A2" fill-opacity="0.02"/>
<path d="M1277.71 296.018L1280.15 291.422L1282.59 296.018L1277.71 296.018Z" fill="#03B8A2" fill-opacity="0.02"/>
<path d="M1213.99 255.49L1211.88 251.5L1216.1 251.5L1213.99 255.49Z" fill="#03B8A2" fill-opacity="0.02"/>
<path d="M1079.89 170.618L1081.68 167.234L1083.49 170.618L1079.89 170.618Z" fill="#03B8A2" fill-opacity="0.02"/>
<path d="M1015.53 129.692L1014.05 126.897L1017 126.897L1015.53 129.692Z" fill="#03B8A2" fill-opacity="0.02"/>
<path d="M882.371 45.0385L883.222 43.4175L884.078 45.0385L882.371 45.0385Z" fill="#03B8A2" fill-opacity="0.02"/>
<path d="M817.071 3.56589L816.481 2.4631L817.651 2.4631L817.071 3.56589Z" fill="#03B8A2" fill-opacity="0.02"/>
<path d="M1409.05 296.629L1412.46 290.2L1415.86 296.629L1409.05 296.629Z" fill="#03B8A2" fill-opacity="0.02"/>
<path d="M1346.3 256.822L1343.13 250.823L1349.48 250.823L1346.3 256.822Z" fill="#03B8A2" fill-opacity="0.02"/>
<path d="M1211.24 171.224L1213.99 166.022L1216.75 171.224L1211.24 171.224Z" fill="#03B8A2" fill-opacity="0.02"/>
<path d="M1147.83 130.887L1145.4 126.292L1150.28 126.292L1147.83 130.887Z" fill="#03B8A2" fill-opacity="0.02"/>
<path d="M1013.74 45.6172L1015.53 42.2329L1017.33 45.6172L1013.74 45.6172Z" fill="#03B8A2" fill-opacity="0.02"/>
<path d="M949.374 4.68478L947.898 1.89035L950.849 1.89035L949.374 4.68478Z" fill="#03B8A2" fill-opacity="0.02"/>
<path d="M1342.56 171.852L1346.3 164.789L1350.04 171.852L1342.56 171.852Z" fill="#03B8A2" fill-opacity="0.02"/>
<path d="M1280.15 132.115L1276.74 125.68L1283.55 125.68L1280.15 132.115Z" fill="#03B8A2" fill-opacity="0.02"/>
<path d="M1145.07 46.2285L1147.83 41.0212L1150.6 46.2285L1145.07 46.2285Z" fill="#03B8A2" fill-opacity="0.02"/>
<path d="M1081.68 5.89645L1079.25 1.28976L1084.13 1.28976L1081.68 5.89645Z" fill="#03B8A2" fill-opacity="0.02"/>
<path d="M1412.46 133.491L1407.96 124.992L1416.94 124.992L1412.46 133.491Z" fill="#03B8A2" fill-opacity="0.02"/>
<path d="M1276.32 46.9055L1280.15 39.6675L1283.97 46.9055L1276.32 46.9055Z" fill="#03B8A2" fill-opacity="0.02"/>
<path d="M1213.99 7.11963L1210.59 0.678954L1217.4 0.678955L1213.99 7.11963Z" fill="#03B8A2" fill-opacity="0.02"/>
<path d="M1407.44 47.6584L1412.46 38.1665L1417.48 47.6584L1407.44 47.6584Z" fill="#03B8A2" fill-opacity="0.02"/>
<path d="M1346.3 8.48413L1341.81 0.00195273L1350.79 0.00195312L1346.3 8.48413Z" fill="#03B8A2" fill-opacity="0.02"/>
</svg>
