<?xml version="1.0" encoding="utf-8"?>
<!-- Generator: Adobe Illustrator 25.4.1, SVG Export Plug-In . SVG Version: 6.00 Build 0)  -->
<svg version="1.1" id="Layer_1" xmlns="http://www.w3.org/2000/svg" xmlns:xlink="http://www.w3.org/1999/xlink" x="0px" y="0px"
	 viewBox="0 0 14 16" style="enable-background:new 0 0 14 16;" xml:space="preserve">
<style type="text/css">
	.st0{fill:#03B8A2;}
</style>
<path class="st0" d="M13.625,15C13.875,15,14,15.125,14,15.375V16H0v-0.625C0,15.125,0.125,15,0.375,15H1V0.75
	c0-0.208,0.073-0.385,0.219-0.531C1.365,0.073,1.542,0,1.75,0h10.5c0.208,0,0.385,0.073,0.531,0.219C12.927,0.365,13,0.542,13,0.75
	V15H13.625z M4,2.375v1.25C4,3.875,4.125,4,4.375,4h1.25C5.875,4,6,3.875,6,3.625v-1.25C6,2.125,5.875,2,5.625,2h-1.25
	C4.125,2,4,2.125,4,2.375z M4,5.375v1.25C4,6.875,4.125,7,4.375,7h1.25C5.875,7,6,6.875,6,6.625v-1.25C6,5.125,5.875,5,5.625,5
	h-1.25C4.125,5,4,5.125,4,5.375z M5.625,10C5.875,10,6,9.875,6,9.625v-1.25C6,8.125,5.875,8,5.625,8h-1.25C4.125,8,4,8.125,4,8.375
	v1.25C4,9.875,4.125,10,4.375,10H5.625z M8,15v-2.625C8,12.125,7.875,12,7.625,12h-1.25C6.125,12,6,12.125,6,12.375V15H8z M10,9.625
	v-1.25C10,8.125,9.875,8,9.625,8h-1.25C8.125,8,8,8.125,8,8.375v1.25C8,9.875,8.125,10,8.375,10h1.25C9.875,10,10,9.875,10,9.625z
	 M10,6.625v-1.25C10,5.125,9.875,5,9.625,5h-1.25C8.125,5,8,5.125,8,5.375v1.25C8,6.875,8.125,7,8.375,7h1.25
	C9.875,7,10,6.875,10,6.625z M10,3.625v-1.25C10,2.125,9.875,2,9.625,2h-1.25C8.125,2,8,2.125,8,2.375v1.25C8,3.875,8.125,4,8.375,4
	h1.25C9.875,4,10,3.875,10,3.625z"/>
</svg>
