<?xml version="1.0" encoding="utf-8"?>
<!-- Generator: Adobe Illustrator 25.4.1, SVG Export Plug-In . SVG Version: 6.00 Build 0)  -->
<svg version="1.1" id="Layer_1" xmlns="http://www.w3.org/2000/svg" xmlns:xlink="http://www.w3.org/1999/xlink" x="0px" y="0px"
	 viewBox="0 0 16 16" style="enable-background:new 0 0 16 16;" xml:space="preserve">
<style type="text/css">
	.st0{fill:#03B8A2;}
</style>
<path class="st0" d="M15.531,11.312C15.844,11.438,16,11.667,16,12c0,0.062-0.01,0.115-0.031,0.156l-0.75,3.25
	c-0.021,0.104-0.073,0.198-0.156,0.281c-0.062,0.104-0.146,0.177-0.25,0.219C14.708,15.969,14.604,16,14.5,16
	c-4,0-7.417-1.417-10.25-4.25C1.417,8.917,0,5.5,0,1.5c0-0.104,0.021-0.208,0.062-0.312C0.125,1.083,0.198,1,0.281,0.938
	C0.385,0.854,0.49,0.802,0.594,0.781l3.25-0.75C3.885,0.01,3.938,0,4,0c0.333,0,0.562,0.156,0.688,0.469l1.5,3.5
	C6.229,4.052,6.25,4.146,6.25,4.25c0,0.229-0.094,0.427-0.281,0.594L4.094,6.375c0.479,1.042,1.26,2.104,2.344,3.188
	c1.083,1.083,2.146,1.865,3.188,2.344l1.531-1.875c0.167-0.187,0.365-0.281,0.594-0.281c0.104,0,0.198,0.021,0.281,0.062
	L15.531,11.312z"/>
</svg>
