<?xml version="1.0" encoding="utf-8"?>
<!-- Generator: Adobe Illustrator 25.4.1, SVG Export Plug-In . SVG Version: 6.00 Build 0)  -->
<svg version="1.1" id="Layer_1" xmlns="http://www.w3.org/2000/svg" xmlns:xlink="http://www.w3.org/1999/xlink" x="0px" y="0px"
	 viewBox="0 0 14 16" style="enable-background:new 0 0 14 16;" xml:space="preserve">
<style type="text/css">
	.st0{fill:#03B8A2;}
</style>
<path class="st0" d="M9.813,6.844C9.042,7.615,8.104,8,7,8S4.948,7.615,4.156,6.844C3.385,6.052,3,5.104,3,4
	s0.385-2.042,1.156-2.812C4.948,0.396,5.896,0,7,0s2.042,0.396,2.813,1.188C10.604,1.958,11,2.896,11,4S10.604,6.052,9.813,6.844z
	 M9.813,9c1.146,0,2.125,0.417,2.938,1.25c0.833,0.812,1.25,1.792,1.25,2.938V14.5c0,0.417-0.146,0.771-0.438,1.062
	C13.271,15.854,12.917,16,12.5,16h-11c-0.417,0-0.771-0.146-1.062-0.438S0,14.917,0,14.5v-1.312c0-1.146,0.406-2.125,1.219-2.938
	C2.052,9.417,3.042,9,4.188,9h0.531C5.448,9.333,6.208,9.5,7,9.5S8.552,9.333,9.281,9H9.813z"/>
</svg>
