<?xml version="1.0" encoding="utf-8"?>
<!-- Generator: Adobe Illustrator 24.3.0, SVG Export Plug-In . SVG Version: 6.00 Build 0)  -->
<svg version="1.1" id="Layer_1" xmlns="http://www.w3.org/2000/svg" xmlns:xlink="http://www.w3.org/1999/xlink" x="0px" y="0px"
	 viewBox="0 0 71 71" style="enable-background:new 0 0 71 71;" xml:space="preserve">
<style type="text/css">
	.st0{fill:#03B8A2;}
	.st1{fill:#00F0D3;}
</style>
<g>
	<path class="st0" d="M58.877,4.581H25.172C23.08,1.806,19.768,0,16.032,0C9.718,0,4.581,5.137,4.581,11.452v5.726v0.001
		c0,2.396,1.855,4.345,4.202,4.542c0.601,1.277,1.523,2.37,2.669,3.172v0.594L4.08,27.698C1.64,28.43,0,30.634,0,33.182v8.044
		h18.323V71H71V16.703L58.877,4.581z M59.548,8.49l7.542,7.542h-7.542V8.49z M24.048,18.323v-3.117
		c0.681,0.397,1.145,1.128,1.145,1.972c0,0.863-0.486,1.607-1.192,1.997C24.031,18.894,24.048,18.61,24.048,18.323z M16.032,2.29
		c5.051,0,9.161,4.11,9.161,9.161v1.782c-0.677-0.394-1.452-0.637-2.29-0.637c-2.021,0-3.977-0.593-5.658-1.713l-1.213-0.809
		l-1.213,0.809c-1.681,1.12-3.637,1.713-5.658,1.713c-0.838,0-1.614,0.243-2.29,0.638v-1.783C6.871,6.4,10.981,2.29,16.032,2.29z
		 M6.871,17.179c0-0.844,0.464-1.575,1.145-1.972v3.116c0,0.289,0.017,0.573,0.047,0.852C7.357,18.785,6.871,18.041,6.871,17.179z
		 M10.306,18.323v-3.494c2.041-0.187,4.001-0.865,5.726-2.001c1.725,1.136,3.685,1.814,5.726,2.001v3.494
		c0,3.157-2.569,5.726-5.726,5.726C12.875,24.048,10.306,21.48,10.306,18.323z M16.032,29.01l-2.249-2.999
		c0.715,0.21,1.468,0.327,2.249,0.327c0.781,0,1.535-0.118,2.249-0.327L16.032,29.01z M19.904,27.666l2.324,0.697l-2.889,5.056
		l-1.875-2.5L19.904,27.666z M12.16,27.666l2.44,3.253l-1.875,2.5l-2.889-5.057L12.16,27.666z M2.29,33.182
		c0-1.529,0.984-2.851,2.448-3.29l2.847-0.854l4.882,8.543l3.565-4.753l3.565,4.754l4.882-8.543l2.847,0.854
		c1.465,0.437,2.448,1.76,2.448,3.289v5.753h-4.581v-4.581h-2.29v4.581H9.161v-4.581h-2.29v4.581H2.29V33.182z M20.613,68.71V41.226
		h11.452v-8.044c0-2.548-1.64-4.752-4.08-5.484l-7.371-2.211v-0.594c1.146-0.802,2.069-1.895,2.669-3.172
		c2.346-0.197,4.202-2.147,4.202-4.543v-5.726c0-1.628-0.347-3.177-0.963-4.581h30.737v11.452H68.71V68.71H20.613z"/>
	<path class="st0" d="M54.667,46.581l1.11-1.11l-1.619-1.619l-1.11,1.11c-1.974-1.617-4.496-2.59-7.242-2.59
		c-2.746,0-5.268,0.973-7.242,2.59l-1.11-1.11l-1.619,1.619l1.11,1.11c-1.617,1.974-2.59,4.496-2.59,7.242s0.973,5.268,2.59,7.242
		l-1.11,1.11l1.619,1.619l1.11-1.11c1.974,1.617,4.496,2.59,7.242,2.59c2.746,0,5.268-0.973,7.242-2.59l1.11,1.11l1.619-1.619
		l-1.11-1.11c1.617-1.974,2.59-4.496,2.59-7.242S56.284,48.555,54.667,46.581z M45.806,44.661c2.114,0,4.056,0.726,5.609,1.933
		l-5.609,5.609l-5.609-5.609C41.75,45.387,43.692,44.661,45.806,44.661z M36.645,53.823c0-2.114,0.726-4.056,1.933-5.609
		l5.609,5.609l-5.609,5.609C37.371,57.879,36.645,55.936,36.645,53.823z M45.806,62.984c-2.114,0-4.056-0.726-5.609-1.933
		l5.609-5.609l5.609,5.609C49.862,62.258,47.92,62.984,45.806,62.984z M47.425,53.823l5.609-5.609
		c1.207,1.553,1.933,3.495,1.933,5.609c0,2.114-0.726,4.056-1.933,5.609L47.425,53.823z"/>
	<path class="st0" d="M56.922,21.423l-1.619-1.619l-1.083,1.083c-2.094-2.274-5.086-3.709-8.413-3.709
		c-6.314,0-11.452,5.137-11.452,11.452s5.137,11.452,11.452,11.452s11.452-5.137,11.452-11.452c0-2.156-0.61-4.167-1.65-5.892
		L56.922,21.423z M54.967,28.629c0,5.051-4.11,9.161-9.161,9.161s-9.161-4.11-9.161-9.161s4.11-9.161,9.161-9.161
		c2.696,0,5.117,1.178,6.794,3.038l-7.939,7.939l-3.771-3.771l-1.619,1.619l5.39,5.39l9.27-9.27
		C54.59,25.677,54.967,27.108,54.967,28.629z"/>
	<path class="st0" d="M62.984,37.79c-1.894,0-3.436,1.541-3.436,3.436c0,1.894,1.541,3.436,3.436,3.436
		c1.894,0,3.436-1.541,3.436-3.436C66.42,39.332,64.878,37.79,62.984,37.79z M62.984,42.371c-0.631,0-1.145-0.514-1.145-1.145
		c0-0.631,0.514-1.145,1.145-1.145c0.631,0,1.145,0.514,1.145,1.145C64.13,41.857,63.615,42.371,62.984,42.371z"/>
	<path class="st0" d="M64.129,33.21h-2.29v2.29h2.29V33.21z"/>
	<path class="st0" d="M64.129,28.629h-2.29v2.29h2.29V28.629z"/>
	<path class="st0" d="M64.129,24.048h-2.29v2.29h2.29V24.048z"/>
	<path class="st0" d="M64.129,56.113h-2.29v2.29h2.29V56.113z"/>
	<path class="st0" d="M64.129,51.532h-2.29v2.29h2.29V51.532z"/>
	<path class="st0" d="M64.129,46.952h-2.29v2.29h2.29V46.952z"/>
</g>
<path class="st1" d="M58.877,4.581H25.172C23.08,1.806,19.768,0,16.032,0C9.718,0,4.581,5.137,4.581,11.452v5.726v0.001
	c0,2.396,1.855,4.345,4.202,4.542c0.601,1.277,1.523,2.37,2.669,3.172v0.594L4.08,27.698C1.64,28.43,0,30.634,0,33.182v8.044h18.323
	V71H71V16.703L58.877,4.581z M59.548,8.49l7.542,7.542h-7.542V8.49z M24.048,18.323v-3.117c0.681,0.397,1.145,1.128,1.145,1.972
	c0,0.863-0.486,1.607-1.192,1.997C24.031,18.894,24.048,18.61,24.048,18.323z M16.032,2.29c5.051,0,9.161,4.11,9.161,9.161v1.782
	c-0.677-0.394-1.452-0.637-2.29-0.637c-2.021,0-3.977-0.593-5.658-1.713l-1.213-0.809l-1.213,0.809
	c-1.681,1.12-3.637,1.713-5.658,1.713c-0.838,0-1.614,0.243-2.29,0.638v-1.783C6.871,6.4,10.981,2.29,16.032,2.29z M6.871,17.179
	c0-0.844,0.464-1.575,1.145-1.972v3.116c0,0.289,0.017,0.573,0.047,0.852C7.357,18.785,6.871,18.041,6.871,17.179z M10.306,18.323
	v-3.494c2.041-0.187,4.001-0.865,5.726-2.001c1.725,1.136,3.685,1.814,5.726,2.001v3.494c0,3.157-2.569,5.726-5.726,5.726
	C12.875,24.048,10.306,21.48,10.306,18.323z M16.032,29.01l-2.249-2.999c0.715,0.21,1.468,0.327,2.249,0.327
	c0.781,0,1.535-0.118,2.249-0.327L16.032,29.01z M19.904,27.666l2.324,0.697l-2.889,5.056l-1.875-2.5L19.904,27.666z M12.16,27.666
	l2.44,3.253l-1.875,2.5l-2.889-5.057L12.16,27.666z M2.29,33.182c0-1.529,0.984-2.851,2.448-3.29l2.847-0.854l4.882,8.543
	l3.565-4.753l3.565,4.754l4.882-8.543l2.847,0.854c1.465,0.437,2.448,1.76,2.448,3.289v5.753h-4.581v-4.581h-2.29v4.581H9.161
	v-4.581h-2.29v4.581H2.29V33.182z M20.613,68.71V41.226h11.452v-8.044c0-2.548-1.64-4.752-4.08-5.484l-7.371-2.211v-0.594
	c1.146-0.802,2.069-1.895,2.669-3.172c2.346-0.197,4.202-2.147,4.202-4.543v-5.726c0-1.628-0.347-3.177-0.963-4.581h30.737v11.452
	H68.71V68.71H20.613z"/>
<path class="st1" d="M54.667,46.581l1.11-1.11l-1.619-1.619l-1.11,1.11c-1.974-1.617-4.496-2.59-7.242-2.59
	c-2.746,0-5.268,0.973-7.242,2.59l-1.11-1.11l-1.619,1.619l1.11,1.11c-1.617,1.974-2.59,4.496-2.59,7.242s0.973,5.268,2.59,7.242
	l-1.11,1.11l1.619,1.619l1.11-1.11c1.974,1.617,4.496,2.59,7.242,2.59c2.746,0,5.268-0.973,7.242-2.59l1.11,1.11l1.619-1.619
	l-1.11-1.11c1.617-1.974,2.59-4.496,2.59-7.242S56.284,48.555,54.667,46.581z M45.806,44.661c2.114,0,4.056,0.726,5.609,1.933
	l-5.609,5.609l-5.609-5.609C41.75,45.387,43.692,44.661,45.806,44.661z M36.645,53.823c0-2.114,0.726-4.056,1.933-5.609l5.609,5.609
	l-5.609,5.609C37.371,57.879,36.645,55.936,36.645,53.823z M45.806,62.984c-2.114,0-4.056-0.726-5.609-1.933l5.609-5.609
	l5.609,5.609C49.862,62.258,47.92,62.984,45.806,62.984z M47.425,53.823l5.609-5.609c1.207,1.553,1.933,3.495,1.933,5.609
	c0,2.114-0.726,4.056-1.933,5.609L47.425,53.823z"/>
<path class="st1" d="M56.922,21.423l-1.619-1.619l-1.083,1.083c-2.094-2.274-5.086-3.709-8.413-3.709
	c-6.314,0-11.452,5.137-11.452,11.452s5.137,11.452,11.452,11.452s11.452-5.137,11.452-11.452c0-2.156-0.61-4.167-1.65-5.892
	L56.922,21.423z M54.967,28.629c0,5.051-4.11,9.161-9.161,9.161s-9.161-4.11-9.161-9.161s4.11-9.161,9.161-9.161
	c2.696,0,5.117,1.178,6.794,3.038l-7.939,7.939l-3.771-3.771l-1.619,1.619l5.39,5.39l9.27-9.27
	C54.59,25.677,54.967,27.108,54.967,28.629z"/>
<path class="st1" d="M62.984,37.79c-1.894,0-3.436,1.541-3.436,3.436c0,1.894,1.541,3.436,3.436,3.436
	c1.894,0,3.436-1.541,3.436-3.436C66.42,39.332,64.878,37.79,62.984,37.79z M62.984,42.371c-0.631,0-1.145-0.514-1.145-1.145
	c0-0.631,0.514-1.145,1.145-1.145c0.631,0,1.145,0.514,1.145,1.145C64.13,41.857,63.615,42.371,62.984,42.371z"/>
<path class="st1" d="M64.129,33.21h-2.29v2.29h2.29V33.21z"/>
<path class="st1" d="M64.129,28.629h-2.29v2.29h2.29V28.629z"/>
<path class="st1" d="M64.129,24.048h-2.29v2.29h2.29V24.048z"/>
<path class="st1" d="M64.129,56.113h-2.29v2.29h2.29V56.113z"/>
<path class="st1" d="M64.129,51.532h-2.29v2.29h2.29V51.532z"/>
<path class="st1" d="M64.129,46.952h-2.29v2.29h2.29V46.952z"/>
</svg>
