<?xml version="1.0" encoding="utf-8"?>
<!-- Generator: Adobe Illustrator 24.3.0, SVG Export Plug-In . SVG Version: 6.00 Build 0)  -->
<svg version="1.1" id="Layer_1" xmlns="http://www.w3.org/2000/svg" xmlns:xlink="http://www.w3.org/1999/xlink" x="0px" y="0px"
	 viewBox="0 0 71 71" style="enable-background:new 0 0 71 71;" xml:space="preserve">
<style type="text/css">
	.st0{fill:#03B8A2;}
	.st1{fill:#00F0D3;}
</style>
<g>
	<path class="st0" d="M67.565,38.936c-0.452,0-0.882,0.093-1.278,0.252c-0.395-1.46-1.719-2.542-3.303-2.542
		c-0.452,0-0.882,0.093-1.278,0.252c-0.395-1.46-1.719-2.542-3.303-2.542c-0.403,0-0.786,0.083-1.145,0.211v-1.767
		c6.689-1.571,11.452-7.504,11.452-14.476c0-3.358-1.13-6.448-3.013-8.941l2.701-2.871L66.73,4.94l-2.55,2.711
		c-2.682-2.604-6.333-4.215-10.357-4.215c-8.209,0-14.887,6.678-14.887,14.887c0,6.972,4.763,12.905,11.452,14.477V53.34
		c-0.215-0.221-0.369-0.506-0.428-0.83l-1.508-8.292c-0.315-1.734-1.821-2.992-3.582-2.992c-2.009,0-3.643,1.634-3.643,3.642v0.732
		c0,0.199,0.017,0.4,0.049,0.599l2.061,12.361c0.161,0.963,0.567,1.876,1.175,2.635l2.832,3.54c0.487,0.609,0.754,1.371,0.754,2.147
		V71h18.323v-4.119c0-0.776,0.267-1.539,0.753-2.147l2.572-3.217C70.553,60.506,71,59.236,71,57.942V42.371
		C71,40.477,69.459,38.936,67.565,38.936z M41.226,18.323c0-6.945,5.651-12.597,12.597-12.597c3.418,0,6.518,1.373,8.789,3.59
		L49.218,23.549l-2.601-2.601l-1.619,1.619l4.27,4.27l14.838-15.767c1.452,2.053,2.313,4.551,2.313,7.251
		c0,5.714-3.781,10.607-9.161,12.116v-1.809c0-1.894-1.541-3.435-3.436-3.435c-1.894,0-3.435,1.541-3.435,3.435v1.809
		C45.007,28.929,41.226,24.037,41.226,18.323z M68.71,57.942c0,0.776-0.267,1.539-0.754,2.147l-2.572,3.217
		c-0.809,1.011-1.255,2.281-1.255,3.575v1.829H50.387v-1.829c0-1.294-0.447-2.565-1.255-3.577l-2.833-3.54
		c-0.364-0.456-0.608-1.002-0.704-1.581l-2.061-12.359c-0.012-0.073-0.017-0.149-0.017-0.224v-0.732
		c0-0.745,0.606-1.351,1.352-1.351c0.653,0,1.213,0.467,1.33,1.111l1.507,8.292c0.337,1.851,1.946,3.194,3.827,3.194h1.145V28.629
		c0-0.631,0.513-1.145,1.145-1.145c0.632,0,1.145,0.514,1.145,1.145v9.161v6.871v2.29h2.29v-2.29V37.79
		c0-0.631,0.513-1.145,1.145-1.145c0.632,0,1.145,0.514,1.145,1.145v2.29v6.871h2.29v-6.871c0-0.631,0.513-1.145,1.145-1.145
		c0.632,0,1.145,0.514,1.145,1.145v2.29v4.581h2.29v-4.581c0-0.631,0.513-1.145,1.145-1.145c0.632,0,1.145,0.514,1.145,1.145V57.942
		z"/>
	<path class="st0" d="M28.629,0H8.016C3.597,0,0,3.596,0,8.016v54.968C0,67.404,3.597,71,8.016,71h20.613
		c4.419,0,8.016-3.596,8.016-8.016V8.016C36.645,3.596,33.048,0,28.629,0z M34.355,62.984c0,3.157-2.569,5.726-5.726,5.726H8.016
		c-3.157,0-5.726-2.569-5.726-5.726V8.016c0-3.157,2.569-5.726,5.726-5.726h20.613c3.157,0,5.726,2.569,5.726,5.726V62.984z"/>
	<path class="st0" d="M18.322,24.926l-3.587,7.164l-8.061,1.154l5.835,5.606l-1.373,7.891l7.186-3.724l7.186,3.724l-1.373-7.891
		l5.835-5.606l-8.061-1.154L18.322,24.926z M21.671,38.043l0.789,4.539l-4.138-2.145l-4.137,2.145l0.789-4.539l-3.327-3.197
		l4.601-0.66l2.074-4.143l2.075,4.144l4.601,0.66L21.671,38.043z"/>
	<path class="st0" d="M18.323,46.703l-3.229,6.389l-7.289,1.034l5.276,5.023L11.843,66.2l6.481-3.327l6.48,3.327l-1.238-7.051
		l5.276-5.023l-7.289-1.034L18.323,46.703z M21.097,58.336l0.654,3.722l-3.427-1.759l-3.428,1.76l0.654-3.722l-2.74-2.606
		l3.789-0.537l1.725-3.413l1.725,3.411l3.789,0.537L21.097,58.336z"/>
	<path class="st0" d="M11.843,23.829l6.481-3.327l6.48,3.327l-1.238-7.051l5.276-5.023l-7.289-1.034l-3.229-6.389l-3.229,6.389
		l-7.289,1.034l5.276,5.023L11.843,23.829z M12.81,13.36l3.789-0.537l1.724-3.413l1.725,3.412l3.789,0.537l-2.74,2.606l0.654,3.722
		l-3.427-1.759l-3.428,1.76l0.654-3.722L12.81,13.36z"/>
</g>
<path class="st1" d="M67.565,38.936c-0.452,0-0.882,0.093-1.278,0.252c-0.395-1.46-1.719-2.542-3.303-2.542
	c-0.452,0-0.882,0.093-1.278,0.252c-0.395-1.46-1.719-2.542-3.303-2.542c-0.403,0-0.786,0.083-1.145,0.211v-1.767
	c6.689-1.571,11.452-7.504,11.452-14.476c0-3.358-1.13-6.448-3.013-8.941l2.701-2.871L66.73,4.94l-2.55,2.711
	c-2.682-2.604-6.333-4.215-10.357-4.215c-8.209,0-14.887,6.678-14.887,14.887c0,6.972,4.763,12.905,11.452,14.477V53.34
	c-0.215-0.221-0.369-0.506-0.428-0.83l-1.508-8.292c-0.315-1.734-1.821-2.992-3.582-2.992c-2.009,0-3.643,1.634-3.643,3.642v0.732
	c0,0.199,0.017,0.4,0.049,0.599l2.061,12.361c0.161,0.963,0.567,1.876,1.175,2.635l2.832,3.54c0.487,0.609,0.754,1.371,0.754,2.147
	V71h18.323v-4.119c0-0.776,0.267-1.539,0.753-2.147l2.572-3.217C70.553,60.506,71,59.236,71,57.942V42.371
	C71,40.477,69.459,38.936,67.565,38.936z M41.226,18.323c0-6.945,5.651-12.597,12.597-12.597c3.418,0,6.518,1.373,8.789,3.59
	L49.218,23.549l-2.601-2.601l-1.619,1.619l4.27,4.27l14.838-15.767c1.452,2.053,2.313,4.551,2.313,7.251
	c0,5.714-3.781,10.607-9.161,12.116v-1.809c0-1.894-1.541-3.435-3.436-3.435c-1.894,0-3.435,1.541-3.435,3.435v1.809
	C45.007,28.929,41.226,24.037,41.226,18.323z M68.71,57.942c0,0.776-0.267,1.539-0.754,2.147l-2.572,3.217
	c-0.809,1.011-1.255,2.281-1.255,3.575v1.829H50.387v-1.829c0-1.294-0.447-2.565-1.255-3.577l-2.833-3.54
	c-0.364-0.456-0.608-1.002-0.704-1.581l-2.061-12.359c-0.012-0.073-0.017-0.149-0.017-0.224v-0.732c0-0.745,0.606-1.351,1.352-1.351
	c0.653,0,1.213,0.467,1.33,1.111l1.507,8.292c0.337,1.851,1.946,3.194,3.827,3.194h1.145V28.629c0-0.631,0.513-1.145,1.145-1.145
	c0.632,0,1.145,0.514,1.145,1.145v9.161v6.871v2.29h2.29v-2.29V37.79c0-0.631,0.513-1.145,1.145-1.145
	c0.632,0,1.145,0.514,1.145,1.145v2.29v6.871h2.29v-6.871c0-0.631,0.513-1.145,1.145-1.145c0.632,0,1.145,0.514,1.145,1.145v2.29
	v4.581h2.29v-4.581c0-0.631,0.513-1.145,1.145-1.145c0.632,0,1.145,0.514,1.145,1.145V57.942z"/>
<path class="st1" d="M28.629,0H8.016C3.597,0,0,3.596,0,8.016v54.968C0,67.404,3.597,71,8.016,71h20.613
	c4.419,0,8.016-3.596,8.016-8.016V8.016C36.645,3.596,33.048,0,28.629,0z M34.355,62.984c0,3.157-2.569,5.726-5.726,5.726H8.016
	c-3.157,0-5.726-2.569-5.726-5.726V8.016c0-3.157,2.569-5.726,5.726-5.726h20.613c3.157,0,5.726,2.569,5.726,5.726V62.984z"/>
<path class="st1" d="M18.322,24.926l-3.587,7.164l-8.061,1.154l5.835,5.606l-1.373,7.891l7.186-3.724l7.186,3.724l-1.373-7.891
	l5.835-5.606l-8.061-1.154L18.322,24.926z M21.671,38.043l0.789,4.539l-4.138-2.145l-4.137,2.145l0.789-4.539l-3.327-3.197
	l4.601-0.66l2.074-4.143l2.075,4.144l4.601,0.66L21.671,38.043z"/>
<path class="st1" d="M18.323,46.703l-3.229,6.389l-7.289,1.034l5.276,5.023L11.843,66.2l6.481-3.327l6.48,3.327l-1.238-7.051
	l5.276-5.023l-7.289-1.034L18.323,46.703z M21.097,58.336l0.654,3.722l-3.427-1.759l-3.428,1.76l0.654-3.722l-2.74-2.606
	l3.789-0.537l1.725-3.413l1.725,3.411l3.789,0.537L21.097,58.336z"/>
<path class="st1" d="M11.843,23.829l6.481-3.327l6.48,3.327l-1.238-7.051l5.276-5.023l-7.289-1.034l-3.229-6.389l-3.229,6.389
	l-7.289,1.034l5.276,5.023L11.843,23.829z M12.81,13.36l3.789-0.537l1.724-3.413l1.725,3.412l3.789,0.537l-2.74,2.606l0.654,3.722
	l-3.427-1.759l-3.428,1.76l0.654-3.722L12.81,13.36z"/>
</svg>
