<?xml version="1.0" encoding="utf-8"?>
<!-- Generator: Adobe Illustrator 24.3.0, SVG Export Plug-In . SVG Version: 6.00 Build 0)  -->
<svg version="1.1" id="Layer_1" xmlns="http://www.w3.org/2000/svg" xmlns:xlink="http://www.w3.org/1999/xlink" x="0px" y="0px"
	 viewBox="0 0 71 71" style="enable-background:new 0 0 71 71;" xml:space="preserve">
<style type="text/css">
	.st0{fill:#03B8A2;}
	.st1{fill:#00F0D3;}
</style>
<g>
	<path class="st0" d="M51.532,24.048h-7.639l6.364-7.274c0.822-0.939,1.276-2.145,1.276-3.393v-0.212
		c0-2.841-2.312-5.153-5.153-5.153c-2.841,0-5.153,2.312-5.153,5.153v1.718h2.29v-1.718c0-1.579,1.284-2.863,2.863-2.863
		s2.863,1.284,2.863,2.863v0.212c0,0.694-0.252,1.363-0.709,1.885l-7.307,8.352v2.721h10.306V24.048z"/>
	<path class="st0" d="M60.693,26.339h2.29v-3.436h2.29v-2.29h-2.29V8.016h-2.998l-6.163,12.326v2.561h6.871V26.339z M56.248,20.613
		l4.445-8.891v8.891H56.248z"/>
	<path class="st0" d="M56.577,36.218C64.812,34.425,71,27.087,71,18.323C71,8.22,62.78,0,52.677,0
		c-8.764,0-16.102,6.188-17.895,14.423c-2.021-0.444-4.084-0.681-6.153-0.681C12.843,13.742,0,26.585,0,42.371
		C0,58.157,12.843,71,28.629,71c15.786,0,28.629-12.843,28.629-28.629C57.258,40.302,57.021,38.239,56.577,36.218z M52.677,2.29
		c8.841,0,16.032,7.192,16.032,16.032c0,8.841-7.192,16.032-16.032,16.032c-8.841,0-16.032-7.192-16.032-16.032
		C36.645,9.482,43.837,2.29,52.677,2.29z M50.342,41.226h-2.246v2.29h2.232c-0.269,5.135-2.318,9.795-5.551,13.385l-1.575-1.575
		l-1.619,1.619l1.575,1.575c-3.59,3.234-8.25,5.281-13.385,5.551v-2.232h-2.29v2.232c-5.135-0.269-9.795-2.318-13.385-5.551
		l1.575-1.575l-1.619-1.619l-1.575,1.575c-3.234-3.59-5.281-8.25-5.551-13.385h2.232v-2.29H6.929
		c0.269-5.135,2.318-9.795,5.551-13.385l1.575,1.575l1.619-1.619l-1.575-1.575c3.59-3.234,8.25-5.281,13.385-5.551v2.232h2.29
		v-2.246c1.647,0.087,3.277,0.364,4.873,0.825c1.324,7.571,7.299,13.546,14.871,14.871C49.977,37.948,50.254,39.579,50.342,41.226z
		 M28.629,68.71C14.105,68.71,2.29,56.895,2.29,42.371s11.815-26.339,26.339-26.339c1.954,0,3.902,0.23,5.808,0.661
		c-0.048,0.538-0.083,1.08-0.083,1.63c0,0.239,0.026,0.473,0.035,0.711c-1.889-0.468-3.82-0.711-5.761-0.711
		c-13.26,0-24.048,10.789-24.048,24.048s10.789,24.048,24.048,24.048c13.26,0,24.048-10.789,24.048-24.048
		c0-1.941-0.243-3.872-0.711-5.761c0.238,0.009,0.472,0.035,0.711,0.035c0.55,0,1.091-0.034,1.63-0.083
		c0.431,1.907,0.661,3.855,0.661,5.808C54.968,56.895,43.153,68.71,28.629,68.71z"/>
	<path class="st0" d="M32.064,42.371c0-1.491-0.961-2.751-2.29-3.225V25.194h-2.29v13.953c-1.33,0.474-2.29,1.734-2.29,3.225
		c0,1.894,1.541,3.436,3.435,3.436c0.529,0,1.024-0.129,1.472-0.345l8.025,8.025l1.619-1.619l-8.025-8.025
		C31.935,43.395,32.064,42.9,32.064,42.371z M27.484,42.371c0-0.632,0.513-1.145,1.145-1.145c0.632,0,1.145,0.513,1.145,1.145
		c0,0.632-0.513,1.145-1.145,1.145C27.997,43.516,27.484,43.003,27.484,42.371z"/>
	<path class="st0" d="M62.984,38.936c-1.894,0-3.436,1.541-3.436,3.435c0,1.433,0.883,2.661,2.132,3.176
		c-0.718,7.54-4.007,14.636-9.335,20.071l1.635,1.603c5.725-5.838,9.246-13.47,9.992-21.577c1.411-0.427,2.447-1.724,2.447-3.273
		C66.42,40.477,64.878,38.936,62.984,38.936z M62.984,43.516c-0.632,0-1.145-0.513-1.145-1.145c0-0.632,0.513-1.145,1.145-1.145
		c0.632,0,1.145,0.513,1.145,1.145C64.129,43.003,63.616,43.516,62.984,43.516z"/>
	<path class="st0" d="M6.049,18.017c5.334-4.948,12.197-7.991,19.409-8.679c0.52,1.24,1.744,2.114,3.17,2.114
		c1.894,0,3.435-1.541,3.435-3.435s-1.541-3.435-3.435-3.435c-1.548,0-2.846,1.036-3.273,2.447
		c-7.754,0.715-15.132,3.995-20.863,9.31L6.049,18.017z M28.629,6.871c0.632,0,1.145,0.513,1.145,1.145
		c0,0.632-0.513,1.145-1.145,1.145c-0.632,0-1.145-0.513-1.145-1.145C27.483,7.384,27.996,6.871,28.629,6.871z"/>
</g>
<path class="st1" d="M51.532,24.048h-7.639l6.364-7.274c0.822-0.939,1.276-2.145,1.276-3.393v-0.212
	c0-2.841-2.312-5.153-5.153-5.153c-2.841,0-5.153,2.312-5.153,5.153v1.718h2.29v-1.718c0-1.579,1.284-2.863,2.863-2.863
	s2.863,1.284,2.863,2.863v0.212c0,0.694-0.252,1.363-0.709,1.885l-7.307,8.352v2.721h10.306V24.048z"/>
<path class="st1" d="M60.693,26.339h2.29v-3.436h2.29v-2.29h-2.29V8.016h-2.998l-6.163,12.326v2.561h6.871V26.339z M56.248,20.613
	l4.445-8.891v8.891H56.248z"/>
<path class="st1" d="M56.577,36.218C64.812,34.425,71,27.087,71,18.323C71,8.22,62.78,0,52.677,0
	c-8.764,0-16.102,6.188-17.895,14.423c-2.021-0.444-4.084-0.681-6.153-0.681C12.843,13.742,0,26.585,0,42.371
	C0,58.157,12.843,71,28.629,71c15.786,0,28.629-12.843,28.629-28.629C57.258,40.302,57.021,38.239,56.577,36.218z M52.677,2.29
	c8.841,0,16.032,7.192,16.032,16.032c0,8.841-7.192,16.032-16.032,16.032c-8.841,0-16.032-7.192-16.032-16.032
	C36.645,9.482,43.837,2.29,52.677,2.29z M50.342,41.226h-2.246v2.29h2.232c-0.269,5.135-2.318,9.795-5.551,13.385l-1.575-1.575
	l-1.619,1.619l1.575,1.575c-3.59,3.234-8.25,5.281-13.385,5.551v-2.232h-2.29v2.232c-5.135-0.269-9.795-2.318-13.385-5.551
	l1.575-1.575l-1.619-1.619l-1.575,1.575c-3.234-3.59-5.281-8.25-5.551-13.385h2.232v-2.29H6.929
	c0.269-5.135,2.318-9.795,5.551-13.385l1.575,1.575l1.619-1.619l-1.575-1.575c3.59-3.234,8.25-5.281,13.385-5.551v2.232h2.29v-2.246
	c1.647,0.087,3.277,0.364,4.873,0.825c1.324,7.571,7.299,13.546,14.871,14.871C49.977,37.948,50.254,39.579,50.342,41.226z
	 M28.629,68.71C14.105,68.71,2.29,56.895,2.29,42.371s11.815-26.339,26.339-26.339c1.954,0,3.902,0.23,5.808,0.661
	c-0.048,0.538-0.083,1.08-0.083,1.63c0,0.239,0.026,0.473,0.035,0.711c-1.889-0.468-3.82-0.711-5.761-0.711
	c-13.26,0-24.048,10.789-24.048,24.048s10.789,24.048,24.048,24.048c13.26,0,24.048-10.789,24.048-24.048
	c0-1.941-0.243-3.872-0.711-5.761c0.238,0.009,0.472,0.035,0.711,0.035c0.55,0,1.091-0.034,1.63-0.083
	c0.431,1.907,0.661,3.855,0.661,5.808C54.968,56.895,43.153,68.71,28.629,68.71z"/>
<path class="st1" d="M32.064,42.371c0-1.491-0.961-2.751-2.29-3.225V25.194h-2.29v13.953c-1.33,0.474-2.29,1.734-2.29,3.225
	c0,1.894,1.541,3.436,3.435,3.436c0.529,0,1.024-0.129,1.472-0.345l8.025,8.025l1.619-1.619l-8.025-8.025
	C31.935,43.395,32.064,42.9,32.064,42.371z M27.484,42.371c0-0.632,0.513-1.145,1.145-1.145c0.632,0,1.145,0.513,1.145,1.145
	c0,0.632-0.513,1.145-1.145,1.145C27.997,43.516,27.484,43.003,27.484,42.371z"/>
<path class="st1" d="M62.984,38.936c-1.894,0-3.436,1.541-3.436,3.435c0,1.433,0.883,2.661,2.132,3.176
	c-0.718,7.54-4.007,14.636-9.335,20.071l1.635,1.603c5.725-5.838,9.246-13.47,9.992-21.577c1.411-0.427,2.447-1.724,2.447-3.273
	C66.42,40.477,64.878,38.936,62.984,38.936z M62.984,43.516c-0.632,0-1.145-0.513-1.145-1.145c0-0.632,0.513-1.145,1.145-1.145
	c0.632,0,1.145,0.513,1.145,1.145C64.129,43.003,63.616,43.516,62.984,43.516z"/>
<path class="st1" d="M6.049,18.017c5.334-4.948,12.197-7.991,19.409-8.679c0.52,1.24,1.744,2.114,3.17,2.114
	c1.894,0,3.435-1.541,3.435-3.435s-1.541-3.435-3.435-3.435c-1.548,0-2.846,1.036-3.273,2.447
	c-7.754,0.715-15.132,3.995-20.863,9.31L6.049,18.017z M28.629,6.871c0.632,0,1.145,0.513,1.145,1.145
	c0,0.632-0.513,1.145-1.145,1.145c-0.632,0-1.145-0.513-1.145-1.145C27.483,7.384,27.996,6.871,28.629,6.871z"/>
</svg>
