<?xml version="1.0" encoding="utf-8"?>
<!-- Generator: Adobe Illustrator 24.3.0, SVG Export Plug-In . SVG Version: 6.00 Build 0)  -->
<svg version="1.1" id="Layer_1" xmlns="http://www.w3.org/2000/svg" xmlns:xlink="http://www.w3.org/1999/xlink" x="0px" y="0px"
	 viewBox="0 0 71 71" style="enable-background:new 0 0 71 71;" xml:space="preserve">
<style type="text/css">
	.st0{fill:#03B8A2;}
	.st1{fill:#00F0D3;}
</style>
<g>
	<path class="st0" d="M38.907,33.94c0.617,0.275,1.273,0.415,1.95,0.415c1.281,0,2.487-0.499,3.395-1.406l1.554-1.554
		c0.739-0.739,1.145-1.72,1.145-2.765c0-1.046-0.407-2.027-1.145-2.764l-1.816-1.816c-1.478-1.476-4.05-1.476-5.529,0l-0.732,0.732
		c-0.267,0.267-0.622,0.413-1,0.413H36.56c-0.378,0-0.733-0.147-1-0.415l-0.79-0.789c-0.268-0.269-0.416-0.624-0.416-1.002
		c0-0.432,0.194-0.835,0.531-1.104l0.657-0.526c0.7-0.561,1.102-1.397,1.102-2.294c0-0.773-0.313-1.53-0.86-2.076l-2.101-2.101
		c-1.478-1.476-4.05-1.477-5.529,0l-1.553,1.554c-0.908,0.906-1.408,2.113-1.408,3.422c0,0.653,0.13,1.289,0.388,1.892
		c2.139,4.991,6.05,8.954,11.011,11.159L38.907,33.94z M27.688,20.852c-0.135-0.315-0.204-0.648-0.204-1.016
		c0-0.671,0.262-1.301,0.736-1.775l1.554-1.554c0.307-0.307,0.712-0.475,1.145-0.475c0.433,0,0.838,0.168,1.145,0.474l2.101,2.101
		c0.119,0.12,0.189,0.287,0.189,0.457c0,0.197-0.088,0.381-0.243,0.505l-0.656,0.526c-0.885,0.707-1.391,1.76-1.391,2.893
		c0,0.989,0.385,1.919,1.084,2.62l0.79,0.789c0.701,0.701,1.632,1.087,2.621,1.087h0.169c0.989,0,1.92-0.386,2.619-1.084
		l0.732-0.731c0.613-0.613,1.678-0.613,2.29,0l1.816,1.815c0.307,0.306,0.474,0.712,0.474,1.145c0,0.433-0.167,0.839-0.474,1.145
		l-1.553,1.554c-0.727,0.726-1.861,0.937-2.797,0.519l-2.314-1.028C33.09,28.85,29.598,25.31,27.688,20.852z"/>
	<path class="st0" d="M52.677,24.048c0-9.472-7.706-17.177-17.177-17.177s-17.177,7.706-17.177,17.177
		c0,9.472,7.706,17.177,17.177,17.177S52.677,33.52,52.677,24.048z M20.613,24.048c0-8.208,6.679-14.887,14.887-14.887
		s14.887,6.679,14.887,14.887S43.708,38.935,35.5,38.935S20.613,32.257,20.613,24.048z"/>
	<path class="st0" d="M65.274,43.516H50.798l3.557-4.494c3.35-4.229,5.193-9.53,5.193-14.974C59.548,10.787,48.76,0,35.5,0
		S11.452,10.787,11.452,24.048v0.048c0,5.396,1.844,10.697,5.193,14.927l3.557,4.492H5.726C2.569,43.516,0,46.085,0,49.242v16.032
		C0,68.431,2.569,71,5.726,71h59.548C68.431,71,71,68.431,71,65.274V49.242C71,46.085,68.431,43.516,65.274,43.516z M68.71,49.242
		v3.435h-9.161v-6.871h5.726C67.168,45.807,68.71,47.348,68.71,49.242z M61.839,68.71h-4.581v-9.161h-19.19
		c0.06-0.065,0.131-0.117,0.186-0.188l3.478-4.393h10.945v-9.161h4.581v9.161H68.71v4.581h-6.871V68.71z M9.161,45.807h4.581v9.161
		h15.525l3.478,4.394c0.055,0.07,0.126,0.121,0.186,0.187H20.613v9.161h-4.581v-9.161H2.29v-4.581h6.871V45.807z M22.903,61.839
		h8.016v6.871h-8.016V61.839z M33.21,59.829c0.633,0.549,1.434,0.865,2.29,0.865s1.657-0.316,2.29-0.865v8.881H33.21V59.829z
		 M54.968,68.71H40.081v-6.871h14.887V68.71z M50.387,45.807v6.871h-6.841l5.439-6.871H50.387z M13.742,24.096v-0.048
		c0-11.998,9.76-21.758,21.758-21.758s21.758,9.76,21.758,21.806c0,4.883-1.669,9.679-4.7,13.505L36.457,57.939
		c-0.467,0.591-1.45,0.59-1.917,0L18.439,37.601C15.41,33.774,13.742,28.978,13.742,24.096z M27.454,52.677H16.032v-6.871h5.982
		L27.454,52.677z M5.726,45.807h1.145v6.871H2.29v-3.435C2.29,47.348,3.832,45.807,5.726,45.807z M2.29,65.274v-3.436h11.452v6.871
		H5.726C3.832,68.71,2.29,67.168,2.29,65.274z M65.274,68.71h-1.145v-6.871h4.581v3.436C68.71,67.168,67.168,68.71,65.274,68.71z"/>
	<path class="st0" d="M68.709,22.903h-2.29v2.29h2.29V22.903z"/>
	<path class="st0" d="M64.129,22.903h-2.29v2.29h2.29V22.903z"/>
	<path class="st0" d="M9.161,22.903h-2.29v2.29h2.29V22.903z"/>
	<path class="st0" d="M4.58,22.903H2.29v2.29h2.29V22.903z"/>
</g>
<path class="st1" d="M38.907,33.94c0.617,0.275,1.273,0.415,1.95,0.415c1.281,0,2.487-0.499,3.395-1.406l1.554-1.554
	c0.739-0.739,1.145-1.72,1.145-2.765c0-1.046-0.407-2.027-1.145-2.764l-1.816-1.816c-1.478-1.476-4.05-1.476-5.529,0l-0.732,0.732
	c-0.267,0.267-0.622,0.413-1,0.413H36.56c-0.378,0-0.733-0.147-1-0.415l-0.79-0.789c-0.268-0.269-0.416-0.624-0.416-1.002
	c0-0.432,0.194-0.835,0.531-1.104l0.657-0.526c0.7-0.561,1.102-1.397,1.102-2.294c0-0.773-0.313-1.53-0.86-2.076l-2.101-2.101
	c-1.478-1.476-4.05-1.477-5.529,0l-1.553,1.554c-0.908,0.906-1.408,2.113-1.408,3.422c0,0.653,0.13,1.289,0.388,1.892
	c2.139,4.991,6.05,8.954,11.011,11.159L38.907,33.94z M27.688,20.852c-0.135-0.315-0.204-0.648-0.204-1.016
	c0-0.671,0.262-1.301,0.736-1.775l1.554-1.554c0.307-0.307,0.712-0.475,1.145-0.475c0.433,0,0.838,0.168,1.145,0.474l2.101,2.101
	c0.119,0.12,0.189,0.287,0.189,0.457c0,0.197-0.088,0.381-0.243,0.505l-0.656,0.526c-0.885,0.707-1.391,1.76-1.391,2.893
	c0,0.989,0.385,1.919,1.084,2.62l0.79,0.789c0.701,0.701,1.632,1.087,2.621,1.087h0.169c0.989,0,1.92-0.386,2.619-1.084l0.732-0.731
	c0.613-0.613,1.678-0.613,2.29,0l1.816,1.815c0.307,0.306,0.474,0.712,0.474,1.145c0,0.433-0.167,0.839-0.474,1.145l-1.553,1.554
	c-0.727,0.726-1.861,0.937-2.797,0.519l-2.314-1.028C33.09,28.85,29.598,25.31,27.688,20.852z"/>
<path class="st1" d="M52.677,24.048c0-9.472-7.706-17.177-17.177-17.177s-17.177,7.706-17.177,17.177
	c0,9.472,7.706,17.177,17.177,17.177S52.677,33.52,52.677,24.048z M20.613,24.048c0-8.208,6.679-14.887,14.887-14.887
	s14.887,6.679,14.887,14.887S43.708,38.935,35.5,38.935S20.613,32.257,20.613,24.048z"/>
<path class="st1" d="M65.274,43.516H50.798l3.557-4.494c3.35-4.229,5.193-9.53,5.193-14.974C59.548,10.787,48.76,0,35.5,0
	S11.452,10.787,11.452,24.048v0.048c0,5.396,1.844,10.697,5.193,14.927l3.557,4.492H5.726C2.569,43.516,0,46.085,0,49.242v16.032
	C0,68.431,2.569,71,5.726,71h59.548C68.431,71,71,68.431,71,65.274V49.242C71,46.085,68.431,43.516,65.274,43.516z M68.71,49.242
	v3.435h-9.161v-6.871h5.726C67.168,45.807,68.71,47.348,68.71,49.242z M61.839,68.71h-4.581v-9.161h-19.19
	c0.06-0.065,0.131-0.117,0.186-0.188l3.478-4.393h10.945v-9.161h4.581v9.161H68.71v4.581h-6.871V68.71z M9.161,45.807h4.581v9.161
	h15.525l3.478,4.394c0.055,0.07,0.126,0.121,0.186,0.187H20.613v9.161h-4.581v-9.161H2.29v-4.581h6.871V45.807z M22.903,61.839
	h8.016v6.871h-8.016V61.839z M33.21,59.829c0.633,0.549,1.434,0.865,2.29,0.865s1.657-0.316,2.29-0.865v8.881H33.21V59.829z
	 M54.968,68.71H40.081v-6.871h14.887V68.71z M50.387,45.807v6.871h-6.841l5.439-6.871H50.387z M13.742,24.096v-0.048
	c0-11.998,9.76-21.758,21.758-21.758s21.758,9.76,21.758,21.806c0,4.883-1.669,9.679-4.7,13.505L36.457,57.939
	c-0.467,0.591-1.45,0.59-1.917,0L18.439,37.601C15.41,33.774,13.742,28.978,13.742,24.096z M27.454,52.677H16.032v-6.871h5.982
	L27.454,52.677z M5.726,45.807h1.145v6.871H2.29v-3.435C2.29,47.348,3.832,45.807,5.726,45.807z M2.29,65.274v-3.436h11.452v6.871
	H5.726C3.832,68.71,2.29,67.168,2.29,65.274z M65.274,68.71h-1.145v-6.871h4.581v3.436C68.71,67.168,67.168,68.71,65.274,68.71z"/>
<path class="st1" d="M68.709,22.903h-2.29v2.29h2.29V22.903z"/>
<path class="st1" d="M64.129,22.903h-2.29v2.29h2.29V22.903z"/>
<path class="st1" d="M9.161,22.903h-2.29v2.29h2.29V22.903z"/>
<path class="st1" d="M4.58,22.903H2.29v2.29h2.29V22.903z"/>
</svg>
