<?xml version="1.0" encoding="utf-8"?>
<!-- Generator: Adobe Illustrator 24.3.0, SVG Export Plug-In . SVG Version: 6.00 Build 0)  -->
<svg version="1.1" id="Layer_1" xmlns="http://www.w3.org/2000/svg" xmlns:xlink="http://www.w3.org/1999/xlink" x="0px" y="0px"
	 viewBox="0 0 71 71" style="enable-background:new 0 0 71 71;" xml:space="preserve">
<style type="text/css">
	.st0{fill:#03B8A2;}
	.st1{fill:#00F0D3;}
</style>
<g>
	<path class="st0" d="M65.274,16.032h-3.436V5.726C61.839,2.569,59.27,0,56.113,0H14.887C11.73,0,9.161,2.569,9.161,5.726v10.307
		H5.726C2.569,16.032,0,18.601,0,21.758v36.645c0,3.157,2.569,5.726,5.726,5.726h14.887v4.581h-4.581V71h38.935v-2.29h-4.581v-4.581
		h14.887c3.157,0,5.726-2.569,5.726-5.726V21.758C71,18.601,68.431,16.032,65.274,16.032z M11.452,5.726
		c0-1.894,1.541-3.435,3.436-3.435h41.226c1.894,0,3.436,1.541,3.436,3.435V35.5c0,1.894-1.541,3.436-3.436,3.436H40.081v5.994
		l-9.989-5.994H14.887c-1.894,0-3.436-1.541-3.436-3.436V5.726z M5.726,18.323h3.436V35.5c0,3.157,2.569,5.726,5.726,5.726h14.57
		l12.914,7.748v-7.748h13.742c3.157,0,5.726-2.569,5.726-5.726V18.323h3.436c1.894,0,3.436,1.541,3.436,3.436v30.919H2.29V21.758
		C2.29,19.864,3.832,18.323,5.726,18.323z M48.097,68.71H22.903v-4.581h25.194V68.71z M65.274,61.839H5.726
		c-1.894,0-3.435-1.541-3.435-3.435v-3.436H68.71v3.436C68.71,60.297,67.168,61.839,65.274,61.839z"/>
</g>
<path class="st1" d="M65.274,16.032h-3.436V5.726C61.839,2.569,59.27,0,56.113,0H14.887C11.73,0,9.161,2.569,9.161,5.726v10.307
	H5.726C2.569,16.032,0,18.601,0,21.758v36.645c0,3.157,2.569,5.726,5.726,5.726h14.887v4.581h-4.581V71h38.935v-2.29h-4.581v-4.581
	h14.887c3.157,0,5.726-2.569,5.726-5.726V21.758C71,18.601,68.431,16.032,65.274,16.032z M11.452,5.726
	c0-1.894,1.541-3.435,3.436-3.435h41.226c1.894,0,3.436,1.541,3.436,3.435V35.5c0,1.894-1.541,3.436-3.436,3.436H40.081v5.994
	l-9.989-5.994H14.887c-1.894,0-3.436-1.541-3.436-3.436V5.726z M5.726,18.323h3.436V35.5c0,3.157,2.569,5.726,5.726,5.726h14.57
	l12.914,7.748v-7.748h13.742c3.157,0,5.726-2.569,5.726-5.726V18.323h3.436c1.894,0,3.436,1.541,3.436,3.436v30.919H2.29V21.758
	C2.29,19.864,3.832,18.323,5.726,18.323z M48.097,68.71H22.903v-4.581h25.194V68.71z M65.274,61.839H5.726
	c-1.894,0-3.435-1.541-3.435-3.435v-3.436H68.71v3.436C68.71,60.297,67.168,61.839,65.274,61.839z"/>
<g>
	<path class="st0" d="M29.774,57.258h-2.29v2.29h2.29V57.258z"/>
</g>
<path class="st1" d="M29.774,57.258h-2.29v2.29h2.29V57.258z"/>
<g>
	<path class="st0" d="M38.935,57.258h-6.871v2.29h6.871V57.258z"/>
</g>
<path class="st1" d="M38.935,57.258h-6.871v2.29h6.871V57.258z"/>
<g>
	<path class="st0" d="M43.516,57.258h-2.29v2.29h2.29V57.258z"/>
</g>
<path class="st1" d="M43.516,57.258h-2.29v2.29h2.29V57.258z"/>
<g>
	<path class="st0" d="M21.758,32.064h5.726V18.323h-2.29v-1.145c0-5.682,4.623-10.306,10.306-10.306
		c5.683,0,10.306,4.624,10.306,10.306v1.145h-2.29v13.742h2.29v1.145c0,0.631-0.513,1.145-1.145,1.145h-5.937
		c-0.474-1.33-1.734-2.29-3.225-2.29c-1.894,0-3.436,1.541-3.436,3.436c0,1.894,1.541,3.436,3.436,3.436
		c1.491,0,2.751-0.961,3.225-2.29h5.937c1.894,0,3.435-1.541,3.435-3.436v-1.145h1.145c3.157,0,5.726-2.569,5.726-5.726v-2.29
		c0-3.157-2.569-5.726-5.726-5.726h-1.145v-1.145c0-6.945-5.651-12.597-12.597-12.597s-12.597,5.651-12.597,12.597v1.145h-1.145
		c-3.157,0-5.726,2.569-5.726,5.726v2.29C16.032,29.496,18.601,32.064,21.758,32.064z M35.5,36.645
		c-0.632,0-1.145-0.514-1.145-1.145c0-0.631,0.513-1.145,1.145-1.145c0.632,0,1.145,0.514,1.145,1.145
		C36.645,36.131,36.132,36.645,35.5,36.645z M52.677,24.048v2.29c0,1.491-0.961,2.751-2.29,3.225v-6.66h-2.29v6.871h-2.29v-9.161
		h3.436C51.136,20.613,52.677,22.154,52.677,24.048z M18.322,24.048c0-1.894,1.541-3.436,3.436-3.436h3.436v9.161h-2.29v-6.871
		h-2.29v6.66c-1.33-0.474-2.29-1.734-2.29-3.225V24.048z"/>
</g>
<path class="st1" d="M21.758,32.064h5.726V18.323h-2.29v-1.145c0-5.682,4.623-10.306,10.306-10.306
	c5.683,0,10.306,4.624,10.306,10.306v1.145h-2.29v13.742h2.29v1.145c0,0.631-0.513,1.145-1.145,1.145h-5.937
	c-0.474-1.33-1.734-2.29-3.225-2.29c-1.894,0-3.436,1.541-3.436,3.436c0,1.894,1.541,3.436,3.436,3.436
	c1.491,0,2.751-0.961,3.225-2.29h5.937c1.894,0,3.435-1.541,3.435-3.436v-1.145h1.145c3.157,0,5.726-2.569,5.726-5.726v-2.29
	c0-3.157-2.569-5.726-5.726-5.726h-1.145v-1.145c0-6.945-5.651-12.597-12.597-12.597s-12.597,5.651-12.597,12.597v1.145h-1.145
	c-3.157,0-5.726,2.569-5.726,5.726v2.29C16.032,29.496,18.601,32.064,21.758,32.064z M35.5,36.645c-0.632,0-1.145-0.514-1.145-1.145
	c0-0.631,0.513-1.145,1.145-1.145c0.632,0,1.145,0.514,1.145,1.145C36.645,36.131,36.132,36.645,35.5,36.645z M52.677,24.048v2.29
	c0,1.491-0.961,2.751-2.29,3.225v-6.66h-2.29v6.871h-2.29v-9.161h3.436C51.136,20.613,52.677,22.154,52.677,24.048z M18.322,24.048
	c0-1.894,1.541-3.436,3.436-3.436h3.436v9.161h-2.29v-6.871h-2.29v6.66c-1.33-0.474-2.29-1.734-2.29-3.225V24.048z"/>
<g>
	<path class="st0" d="M22.904,48.097h-2.29v2.29h2.29V48.097z"/>
</g>
<path class="st1" d="M22.904,48.097h-2.29v2.29h2.29V48.097z"/>
<g>
	<path class="st0" d="M18.323,48.097H4.581v2.29h13.742V48.097z"/>
</g>
<path class="st1" d="M18.323,48.097H4.581v2.29h13.742V48.097z"/>
<g>
	<path class="st0" d="M22.904,43.516H4.581v2.29h18.322V43.516z"/>
</g>
<path class="st1" d="M22.904,43.516H4.581v2.29h18.322V43.516z"/>
<path class="st1" d="M66.419,48.097h-2.29v2.29h2.29V48.097z"/>
<g>
	<path class="st0" d="M61.839,48.097H48.097v2.29h13.742V48.097z"/>
</g>
<path class="st1" d="M61.839,48.097H48.097v2.29h13.742V48.097z"/>
<g>
	<path class="st0" d="M66.419,43.516H48.097v2.29h18.323V43.516z"/>
</g>
<path class="st1" d="M66.419,43.516H48.097v2.29h18.323V43.516z"/>
</svg>
